<svg id="图层_1" data-name="图层 1" xmlns="http://www.w3.org/2000/svg" viewBox="0 0 120 120"><defs><style>.cls-1{fill:none;}.cls-2{fill:#7ccb3c;}</style></defs><title>loading</title><path class="cls-1" d="M0,0H120V120H0Z"/><path class="cls-2" d="M60,22.8h0c2.65,0,4.8,2.69,4.8,6V43.2c0,3.31-2.15,6-4.8,6h0c-2.65,0-4.8-2.69-4.8-6V28.8C55.2,25.49,57.35,22.8,60,22.8Z"/><path class="cls-2" d="M83.91,31.5h0c2,1.7,2,5.14-.18,7.68l-9.26,11c-2.13,2.54-5.5,3.21-7.53,1.51h0c-2-1.7-2-5.14.18-7.68l9.26-11C78.51,30.48,81.88,29.8,83.91,31.5Z"/><path class="cls-2" d="M96.64,53.54h0c.46,2.61-1.81,5.19-5.08,5.77l-14.18,2.5c-3.26.58-6.28-1.07-6.74-3.69h0c-.46-2.61,1.81-5.19,5.08-5.77l14.18-2.5C93.16,49.28,96.17,50.93,96.64,53.54Z"/><path class="cls-2" d="M92.22,78.6h0c-1.33,2.3-4.73,2.81-7.6,1.16l-12.47-7.2C69.28,70.9,68,67.7,69.35,65.4h0c1.33-2.3,4.73-2.81,7.6-1.16l12.47,7.2C92.29,73.1,93.54,76.3,92.22,78.6Z"/><path class="cls-2" d="M72.72,95h0c-2.49.91-5.43-.88-6.56-4L61.23,77.43c-1.13-3.11,0-6.37,2.46-7.28h0c2.49-.91,5.43.88,6.56,4l4.93,13.53C76.31,90.79,75.21,94,72.72,95Z"/><path class="cls-2" d="M47.28,95h0c-2.49-.91-3.59-4.17-2.46-7.28l4.93-13.53c1.13-3.11,4.07-4.9,6.56-4h0c2.49.91,3.59,4.17,2.46,7.28L53.84,91C52.71,94.07,49.77,95.86,47.28,95Z"/><path class="cls-2" d="M27.78,78.6h0c-1.33-2.3-.07-5.5,2.8-7.16L43,64.24c2.87-1.66,6.27-1.14,7.6,1.16h0c1.33,2.3.07,5.5-2.8,7.16l-12.47,7.2C32.51,81.41,29.11,80.9,27.78,78.6Z"/><path class="cls-2" d="M23.36,53.54h0c.46-2.61,3.48-4.26,6.74-3.69l14.18,2.5c3.26.58,5.54,3.16,5.08,5.77h0c-.46,2.61-3.48,4.26-6.74,3.69l-14.18-2.5C25.18,58.73,22.9,56.15,23.36,53.54Z"/><path class="cls-2" d="M36.09,31.5h0c2-1.7,5.4-1,7.53,1.51l9.26,11c2.13,2.54,2.21,6,.18,7.68h0c-2,1.7-5.4,1-7.53-1.51l-9.26-11C34.14,36.65,34.06,33.21,36.09,31.5Z"/></svg>