<?xml version="1.0" encoding="UTF-8"?>
<svg width="24px" height="23px" viewBox="0 0 24 23" version="1.1" xmlns="http://www.w3.org/2000/svg" xmlns:xlink="http://www.w3.org/1999/xlink">
    <title>Frame</title>
    <g id="页面-1" stroke="none" stroke-width="1" fill="none" fill-rule="evenodd">
        <g id="016-Asset-page" transform="translate(-98.000000, -331.000000)" fill="#FFFFFF" fill-rule="nonzero">
            <g id="Group-4" transform="translate(98.000000, 269.000000)">
                <g id="Group-3" transform="translate(0.000000, 61.000000)">
                    <g id="icon/mini/scan" transform="translate(0.000000, 1.000000)">
                        <g id="Frame">
                            <path d="M0.98534069,10.6651 L9.76293517,10.6651 C10.3060303,10.6651 10.7482759,10.2235821 10.7482759,9.68707429 L10.7482759,0.974805714 C10.7482759,0.435735 10.3034483,-0.0032085 9.76293517,-0.0032085 L0.98534069,-0.0032085 C0.444827586,-0.0032085 0,0.435735 0,0.974805714 L0,9.68707429 C0,10.226145 0.444827586,10.6651 0.98534069,10.6651 Z M1.88534069,1.88094 L8.87069793,1.88094 L8.87069793,8.80147571 L1.88534069,8.80147571 L1.88534069,1.88094 Z" id="形状"></path>
                            <path d="M5.37477517,4.32533071 C5.08513655,4.32533071 4.8446069,4.42030429 4.65065379,4.61283071 C4.45668414,4.75658071 4.36099862,5.04408071 4.36099862,5.33158071 C4.36099862,5.61908071 4.45668414,5.85782071 4.65065379,6.05033071 C4.8446069,6.24285714 5.13426207,6.33783071 5.37477517,6.33783071 C5.66443034,6.33783071 5.90496,6.24285714 6.0989131,6.05033071 C6.29288276,5.85782071 6.38856828,5.57032071 6.38856828,5.33158071 C6.38856828,5.04408071 6.29288276,4.80535714 6.0989131,4.61283071 C5.90754207,4.42288357 5.6178869,4.32533071 5.37477517,4.32533071 Z M16.7670621,21.1158071 L18.6549517,21.1158071 L18.6549517,22.98965 L16.7670621,22.98965 L16.7670621,21.1158071 Z" id="形状"></path>
                            <path d="M14.3153048,20.8360286 L14.3153048,16.8084 L16.7670621,16.8084 L16.7670621,18.6824071 L23.1782069,18.6824071 L23.1782069,13.296875 C23.1782069,12.7578043 22.7334621,12.3188657 22.1928828,12.3188657 L21.2903172,12.3188657 L21.2903172,16.8084 L18.6549517,16.8084 L18.6549517,12.3188657 L13.4153214,12.3188657 C12.8722097,12.3188657 12.4299641,12.7603836 12.4299641,13.296875 L12.4299641,22.0091929 C12.4299641,22.5482143 12.8747917,22.9871857 13.4153214,22.9871857 L14.3153048,22.9871857 L14.3153048,20.8360286 Z M13.4153214,10.6683036 L22.1928828,10.6683036 C22.7359448,10.6683036 23.1782069,10.2267857 23.1782069,9.69029429 L23.1782069,0.978009286 C23.1782069,0.438955 22.7334621,0 22.1928828,0 L13.4153214,0 C12.8722097,0 12.429953,0.441517857 12.429953,0.978009286 L12.429953,9.69029429 C12.4273821,10.2293486 12.8722097,10.6683036 13.4153214,10.6683036 Z M14.3127228,1.88158071 L21.2980966,1.88158071 L21.2980966,8.80211643 L14.3127228,8.80211643 L14.3127228,1.88158071 Z" id="形状"></path>
                            <path d="M17.803531,4.32855071 C17.5138759,4.32855071 17.2732138,4.42352429 17.0793931,4.61605071 C16.8854069,4.75980071 16.7897379,5.04730071 16.7897379,5.33480071 C16.7897379,5.62230071 16.8854069,5.86102429 17.0793931,6.05355071 C17.2732138,6.24606071 17.562869,6.34105071 17.803531,6.34105071 C18.0931862,6.34105071 18.3336828,6.24606071 18.527669,6.05355071 C18.7214897,5.86102429 18.8171586,5.57352429 18.8171586,5.33480071 C18.8171586,5.04730071 18.7214897,4.80856071 18.527669,4.61605071 C18.3336828,4.42352429 18.0440276,4.32855071 17.803531,4.32855071 Z M10.7508579,13.2975157 C10.7508579,12.7584614 10.3060303,12.3195064 9.76551724,12.3195064 L0.98534069,12.3195064 C0.444827586,12.3195064 0,12.7584614 0,13.2975157 L0,22.00985 C0,22.5488714 0.444827586,22.9878429 0.98534069,22.9878429 L9.76293517,22.9878429 C10.3060303,22.9878429 10.7482759,22.5462429 10.7482759,22.00985 L10.7482759,13.2975157 L10.7508579,13.2975157 Z M1.88534069,21.1215571 L1.88534069,14.20365 L8.87069793,14.20365 L8.87069793,21.1241857 L1.88534069,21.1241857 L1.88534069,21.1215571 Z" id="形状"></path>
                            <path d="M5.37479172,18.6592429 C5.6644469,18.6592429 5.90496,18.5642857 6.09892966,18.3717429 C6.29288276,18.1792 6.38858483,17.8917 6.38858483,17.6529929 C6.38858483,17.3654929 6.29288276,17.1267857 6.09892966,16.9342429 C5.90496,16.7417 5.61530483,16.6467429 5.37479172,16.6467429 C5.08513655,16.6467429 4.8446069,16.7417 4.65065379,16.9342429 C4.45668414,17.0779929 4.36099862,17.3654929 4.36099862,17.6529929 C4.36099862,17.9404929 4.45668414,18.1792 4.65065379,18.3717429 C4.8446069,18.5642857 5.13426207,18.6592429 5.37479172,18.6592429 Z M23.1782069,21.1133429 L21.287669,21.1133429 L21.287669,22.9871857 L22.2135724,22.9871857 C22.7437241,22.9871857 23.1782069,22.5559357 23.1782069,22.0297286 L23.1782069,21.1133429 Z" id="形状"></path>
                        </g>
                    </g>
                </g>
            </g>
        </g>
    </g>
</svg>