<?xml version="1.0" encoding="UTF-8"?>
<svg width="60px" height="60px" viewBox="0 0 60 60" version="1.1" xmlns="http://www.w3.org/2000/svg" xmlns:xlink="http://www.w3.org/1999/xlink">
    <title>Group</title>
    <g id="页面-1" stroke="none" stroke-width="1" fill="none" fill-rule="evenodd">
        <g id="050-UI-guideline" transform="translate(-353.000000, -2662.000000)" stroke="#7CCB3C">
            <g id="icon/circle/4" transform="translate(353.000000, 2662.000000)">
                <g id="Group">
                    <circle id="椭圆形" stroke-width="6" fill="#FFFFFF" cx="30" cy="30" r="27"></circle>
                    <path d="M14.9985673,37 L15.9484241,34.1221167 L21.0050143,34.1221167 L21.8896848,37 L25,37 L20.1389685,23 L16.8982808,23 L12,37 L14.9985673,37 Z M20,31 L17,31 L18.5240642,26 L20,31 Z M37,37 L37,34.4830393 L30.6705202,34.4830393 L30.6705202,23 L28,23 L28,37 L37,37 Z M48,37 L48,34.4830393 L41.6705202,34.4830393 L41.6705202,23 L39,23 L39,37 L48,37 Z" id="ALL" fill="#7CCB3C" fill-rule="nonzero"></path>
                </g>
            </g>
        </g>
    </g>
</svg>