<?xml version="1.0" encoding="UTF-8"?>
<svg width="22px" height="16px" viewBox="0 0 22 16" version="1.1" xmlns="http://www.w3.org/2000/svg" xmlns:xlink="http://www.w3.org/1999/xlink">
    <title>Combined Shape</title>
    <g id="é¡µé¢-1" stroke="none" stroke-width="1" fill="none" fill-rule="evenodd">
        <g id="023-Send" transform="translate(-54.000000, -827.000000)" fill="#4BA870" fill-rule="nonzero">
            <g id="Group-6" transform="translate(40.000000, 467.000000)">
                <g id="Group-5" transform="translate(14.000000, 20.000000)">
                    <g id="list/activity-list" transform="translate(0.000000, 296.000000)">
                        <g id="Group-2" transform="translate(0.000000, 40.000000)">
                            <g id="Group">
                                <g id="list/activity-list/icon" transform="translate(0.000000, 4.000000)">
                                    <g id="Group-5">
                                        <path d="M21.5712694,7.53007014 C22.0570598,8.00464372 22.0979326,8.76290881 21.6878169,9.28507896 L21.5930299,9.39316944 L15.7120299,15.4131694 C15.2352141,15.9012549 14.4725892,15.9398898 13.9506312,15.5246827 L13.8426586,15.4287617 L12.7376586,14.3347617 C12.2205756,13.8228261 12.2164027,12.9886416 12.7283383,12.4715586 C13.2061449,11.9889478 13.964666,11.9531387 14.4840862,12.3667317 L14.5915414,12.4622383 L14.753,12.623 L19.7081701,7.55183056 C20.2166418,7.03134093 21.0507798,7.02159845 21.5712694,7.53007014 Z M20.0841495,0.48405065 C20.7162488,1.10154372 20.7645753,2.09127368 20.2210901,2.76549772 L20.1122493,2.88804948 L8.31724935,14.9620495 C7.69676274,15.5972131 6.70118809,15.6425005 6.02735113,15.0921536 L5.90494719,14.9819821 L0.503947187,9.63298212 C-0.163147685,8.97230993 -0.168354302,7.89594206 0.492317883,7.22884719 C1.114127,6.60099319 2.10416482,6.55944851 2.7746496,7.1075401 L2.89645281,7.21721788 L7.081,11.362 L17.6801507,0.512150515 C18.336237,-0.159454996 19.412544,-0.172035734 20.0841495,0.48405065 Z" id="Combined-Shape"></path>
                                    </g>
                                </g>
                            </g>
                        </g>
                    </g>
                </g>
            </g>
        </g>
    </g>
</svg>