<?xml version="1.0" encoding="UTF-8"?>
<svg width="70px" height="70px" viewBox="0 0 70 70" version="1.1" xmlns="http://www.w3.org/2000/svg" xmlns:xlink="http://www.w3.org/1999/xlink">
    <title>Group</title>
    <g id="页面-1" stroke="none" stroke-width="1" fill="none" fill-rule="evenodd">
        <g id="016-Asset-page" transform="translate(-456.000000, -269.000000)">
            <g id="Group-4" transform="translate(98.000000, 269.000000)">
                <g id="icon/circle/3" transform="translate(358.000000, 0.000000)">
                    <g id="Group">
                        <circle id="Oval" stroke="#FFFFFF" fill="#FFFFFF" cx="35" cy="35" r="34.5"></circle>
                        <g id="logo/small" transform="translate(13.000000, 13.000000)" fill="#7CCB3C">
                            <g id="Fill-2">
                                <path d="M22,33 C22,39.0752146 17.0752146,44 11,44 C4.92488584,44 0,39.0752146 0,33 C0,26.9439726 4.89404566,22.0309406 10.9429406,22.0002009 C4.89424658,21.9691598 0,17.0562283 0,11.0003014 C0,4.92508676 4.92528767,0 11.0004018,0 C17.052411,0 21.9628311,4.88761644 22.0002009,10.9307854 C22.0374703,4.88741553 26.9479909,0 33,0 C39.0752146,0 44,4.92478539 44,11 C44,17.0738082 39.0773242,21.9978904 33.0040183,22 C39.0773242,22.0021096 44,26.9261918 44,33 C44,39.0752146 39.0752146,44 33,44 C26.9247854,44 22,39.0752146 22,33 M33,21.9670911 C26.9322153,21.9670911 22.0089137,17.0635088 21.9713451,11 C21.9340787,17.0444589 17.0415974,21.9365508 11,21.9672927 C17.0631515,21.9983369 21.9690286,26.9255048 21.9711437,33 C21.9732588,26.9063541 26.9102583,21.9670911 33,21.9670911" id="Fill-1"></path>
                            </g>
                        </g>
                    </g>
                </g>
            </g>
        </g>
    </g>
</svg>