<?xml version="1.0" encoding="UTF-8"?>
<svg width="71px" height="70px" viewBox="0 0 71 70" version="1.1" xmlns="http://www.w3.org/2000/svg" xmlns:xlink="http://www.w3.org/1999/xlink">
    <title>Group</title>
    <g id="页面-1" stroke="none" stroke-width="1" fill="none" fill-rule="evenodd">
        <g id="019-Asset-page(P2)" transform="translate(-561.000000, -269.000000)">
            <g id="Group-4" transform="translate(97.000000, 269.000000)">
                <g id="Group" transform="translate(464.000000, 0.000000)">
                    <g id="Group-2">
                        <g id="icon/circle/6" transform="translate(0.086957, 0.000000)">
                            <g id="Group">
                                <circle id="Oval" fill="#FDEDED" cx="35" cy="35" r="35"></circle>
                                <g id="Polkadot_symbol_color" transform="translate(15.000000, 10.000000)" fill="#E6007A">
                                    <path d="M20,0 C8.99470899,0 0,8.92949718 0,19.9724848 C0,22.1916498 0.37037037,24.3579775 1.05820106,26.471468 C1.53439153,27.898074 3.12169312,28.690633 4.6031746,28.2150976 C6.03174603,27.7395623 6.82539683,26.1544444 6.34920635,24.6750011 C5.76719577,23.037046 5.5026455,21.2934164 5.55555556,19.5497867 C5.76719577,12.0997329 11.7989418,5.97061054 19.2592593,5.60074971 C27.5661376,5.17805162 34.4444444,11.7827093 34.4444444,19.9724848 C34.4444444,27.6338877 28.4126984,33.9215218 20.8465608,34.3442199 C20.8465608,34.3442199 18.042328,34.5027317 16.6666667,34.7140808 C15.978836,34.8197553 15.4497354,34.9254298 15.0793651,34.9782671 C14.9206349,35.0311043 14.7619048,34.8725926 14.8148148,34.7140808 L15.2910053,32.3892413 L17.8835979,20.4480202 C18.2010582,18.9685769 17.2486772,17.4891335 15.7671958,17.17211 C14.2857143,16.8550864 12.8042328,17.8061571 12.4867725,19.2856004 C12.4867725,19.2856004 6.24338624,48.3460942 6.19047619,48.6631178 C5.87301587,50.1425611 6.82539683,51.6220044 8.30687831,51.939028 C9.78835979,52.2560516 11.2698413,51.3049809 11.5873016,49.8255375 C11.6402116,49.508514 12.4867725,45.6513939 12.4867725,45.6513939 C13.1216931,42.6925072 15.5555556,40.5261795 18.4126984,40.1563187 C19.047619,40.0506442 21.5343915,39.8921324 21.5343915,39.8921324 C31.8518519,39.0995735 40,30.4870999 40,19.9724848 C40,8.92949718 31.005291,0 20,0 Z" id="Path"></path>
                                    <path d="M21.6157129,46.0635232 C20.0053869,45.7319855 18.3950609,46.7265986 18.0635232,48.3842871 C17.7319855,49.9946131 18.7265986,51.6049391 20.3842871,51.9364768 C21.9946131,52.2680145 23.6049391,51.2734014 23.9364768,49.6157129 C24.2680145,47.9580244 23.2734014,46.3950609 21.6157129,46.0635232 Z" id="Path"></path>
                                </g>
                            </g>
                        </g>
                    </g>
                </g>
            </g>
        </g>
    </g>
</svg>