<?xml version="1.0" encoding="UTF-8"?>
<svg width="526px" height="333px" viewBox="0 0 526 333" version="1.1" xmlns="http://www.w3.org/2000/svg" xmlns:xlink="http://www.w3.org/1999/xlink">
    <title>scan扫描</title>
    <defs>
        <linearGradient x1="89.6574058%" y1="24.3306756%" x2="8.09535344%" y2="70.0395047%" id="linearGradient-1">
            <stop stop-color="#A9F095" offset="0%"></stop>
            <stop stop-color="#368757" offset="100%"></stop>
        </linearGradient>
        <rect id="path-2" x="0" y="0" width="526" height="333" rx="40"></rect>
    </defs>
    <g id="页面-1" stroke="none" stroke-width="1" fill="none" fill-rule="evenodd">
        <g id="016-Asset-page" transform="translate(-40.000000, -229.000000)">
            <g id="scan扫描" transform="translate(40.000000, 229.000000)">
                <g id="形状">
                    <mask id="mask-3" fill="white">
                        <use xlink:href="#path-2"></use>
                    </mask>
                    <use id="Mask" fill="url(#linearGradient-1)" xlink:href="#path-2"></use>
                    <path d="M528,20 C583.503533,20 630.29827,57.4679779 644.487212,108.493211 C694.904851,122.486457 732.097002,168.348813 732.983796,223.001434 L733,224.999846 C733,280.496676 695.542149,327.285701 644.527695,341.481442 C630.296928,392.91829 582.992524,430 528,430 C472.496553,430 425.701759,392.53188 411.512795,341.506718 C360.481934,327.343314 323,280.530619 323,225 L396.271152,225 C396.271152,240.840164 404.027114,254.888496 415.944208,263.549921 C428.134709,233.535412 452.017876,209.517668 481.928898,197.164048 C473.359102,185.507439 459.539306,177.932783 443.96845,177.932783 C417.982753,177.932783 396.271152,199.029422 396.271152,225 L323,224.999846 C323,169.490558 360.47568,122.692046 411.508945,108.508398 C425.607275,57.8752631 471.931416,20 528,20 Z M497.633825,268 L497.048896,268.43285 C485.479364,277.233984 478,291.164975 478,306.828258 C478,333.408374 499.538371,355 526.052875,355 C542.296931,355 556.258358,346.812059 565,335.327495 C534.552088,322.80989 510.190873,298.460995 497.633825,268 Z M638.03695,188 L637.815899,188.539339 C625.156076,218.656667 601.052552,242.724198 571,255.210943 C579.765716,267.205521 593.901528,275 609.828442,275 C636.406658,275 657.997079,253.294213 658,226.572431 C658,210.757414 649.8131,196.714554 638.03695,188 Z M491,115.274339 C521.41964,127.737926 545.742048,151.854869 558.299477,182 C570.240456,173.296099 578,159.259714 578,143.444826 C578,117.051872 556.388576,95 529.784036,95 C514.149216,95 499.778377,102.86064 491,115.274339 Z" fill-opacity="0.28" fill="#4BA870" mask="url(#mask-3)"></path>
                </g>
            </g>
        </g>
    </g>
</svg>