<?xml version="1.0" encoding="UTF-8"?>
<svg width="54px" height="54px" viewBox="0 0 54 54" version="1.1" xmlns="http://www.w3.org/2000/svg" xmlns:xlink="http://www.w3.org/1999/xlink">
    <title>logo/small</title>
    <g id="页面-1" stroke="none" stroke-width="1" fill="none" fill-rule="evenodd">
        <g id="050-UI-guideline" transform="translate(-501.000000, -2758.000000)" fill="#C4C4C4">
            <g id="logo/switch/clovergray" transform="translate(501.000000, 2758.000000)">
                <g id="logo/small">
                    <g id="Fill-2">
                        <path d="M27,40.5 C27,47.9559452 20.9559452,54 13.5,54 C6.04417808,54 0,47.9559452 0,40.5 C0,33.0676027 6.00632877,27.0379726 13.4299726,27.0002466 C6.00657534,26.9621507 0,20.9326438 0,13.5003699 C0,6.04442466 6.04467123,0 13.5004932,0 C20.9279589,0 26.9543836,5.99843836 27.0002466,13.4150548 C27.0459863,5.99819178 33.0725342,0 40.5,0 C47.9559452,0 54,6.04405479 54,13.5 C54,20.9542192 47.9585342,26.997411 40.5049315,27 C47.9585342,27.002589 54,33.0457808 54,40.5 C54,47.9559452 47.9559452,54 40.5,54 C33.0440548,54 27,47.9559452 27,40.5 M40.5,26.9596118 C33.0531734,26.9596118 27.0109396,20.941579 26.9648326,13.5 C26.9190965,20.9181996 20.9146877,26.9221305 13.5,26.9598592 C20.9411405,26.9979589 26.9619896,33.0449377 26.9645854,40.5 C26.9671813,33.0214346 33.0262262,26.9596118 40.5,26.9596118" id="Fill-1"></path>
                    </g>
                </g>
            </g>
        </g>
    </g>
</svg>