<svg id="图层_1" data-name="图层 1" xmlns="http://www.w3.org/2000/svg" xmlns:xlink="http://www.w3.org/1999/xlink" viewBox="0 0 60 60"><defs><style>.cls-1{fill:none;clip-rule:evenodd;}.cls-2{clip-path:url(#clip-path);}.cls-3{fill:#333;}</style><clipPath id="clip-path"><path class="cls-1" d="M30,15A15,15,0,0,1,15,30,15,15,0,0,1,30,45,15,15,0,0,1,45,30,15,15,0,0,1,30,15ZM45,0a15,15,0,0,1,0,30A15,15,0,1,1,30,45,15,15,0,1,1,14.92,30,15,15,0,1,1,30,14.91,15,15,0,0,1,45,0Z"/></clipPath></defs><title>clover_black</title><g class="cls-2"><rect class="cls-3" x="-5" y="-5" width="70" height="70"/></g></svg>