<?xml version="1.0" encoding="UTF-8"?>
<svg width="172px" height="36px" viewBox="0 0 172 36" version="1.1" xmlns="http://www.w3.org/2000/svg" xmlns:xlink="http://www.w3.org/1999/xlink">
    <title>Group</title>
    <g id="页面-1" stroke="none" stroke-width="1" fill="none" fill-rule="evenodd">
        <g id="004-Create-password" transform="translate(-53.000000, -40.000000)">
            <g id="logo/small" transform="translate(53.000000, 40.000000)">
                <g id="Group">
                    <g id="2" transform="translate(50.000000, 7.000000)" fill="#000000" fill-rule="nonzero">
                        <path d="M20.3364403,8.32317041 C19.8703947,3.01132288 15.9302588,0 10.4647743,0 C4.61810176,0 0,3.84785053 0,11 C0,18.1206435 4.49088995,22 10.4647743,22 C16.8199958,22 20.0399607,17.6501151 20.3364403,14.0113229 L14.3627051,13.9695112 C14.0660764,15.7993602 12.7526481,16.9391697 10.5919861,16.9391697 C7.72144348,16.9391697 6.05859278,14.9314738 6.05859278,11 C6.05859278,7.27758445 7.6685007,5.06083034 10.6343403,5.06083034 C12.9008878,5.06083034 14.1931391,6.37833931 14.3627051,8.32317041 L20.3364403,8.32317041 Z M23.0083356,21.7071712 L37.6675203,21.7071712 L37.6675203,17.022793 L28.8975115,17.022793 L28.8975115,0.292681621 L23.0083356,0.292681621 L23.0083356,21.7071712 Z M60.2178636,11 C60.2178636,3.84785053 55.5574076,0 49.6682318,0 C43.7367017,0 39.118749,3.84785053 39.118749,11 C39.118749,18.1101906 43.7367017,22 49.6682318,22 C55.5574076,22 60.2178636,18.1520022 60.2178636,11 Z M54.1592709,11 C54.1592709,14.8478505 52.591568,16.9391697 49.6682318,16.9391697 C46.7448955,16.9391697 45.1773418,14.8478505 45.1773418,11 C45.1773418,7.15200225 46.7448955,5.06083034 49.6682318,5.06083034 C52.591568,5.06083034 54.1592709,7.15200225 54.1592709,11 Z M67.5050272,0.292681621 L60.8533261,0.292681621 L68.0135761,21.7071712 L76.0635631,21.7071712 L83.2235149,0.292681621 L76.5721121,0.292681621 L72.1231289,15.3915493 L71.953712,15.3915493 L67.5050272,0.292681621 Z M85.3128905,21.7071712 L100.903421,21.7071712 L100.903421,17.022793 L91.2022155,17.022793 L91.2022155,13.3421891 L100.141343,13.3421891 L100.141343,8.65781091 L91.2022155,8.65781091 L91.2022155,4.97720702 L100.94667,4.97720702 L100.94667,0.292681621 L85.3128905,0.292681621 L85.3128905,21.7071712 Z M103.866725,21.7071712 L109.75605,21.7071712 L109.75605,14.6387922 L111.790246,14.6387922 L115.603617,21.7071712 L122,21.7071712 L117.594564,13.7186413 C119.903168,12.6206435 121.27968,10.5399245 121.27968,7.57026607 C121.27968,3.01132288 118.049425,0.292681621 113.230886,0.292681621 L103.866725,0.292681621 L103.866725,21.7071712 Z M109.75605,10.1216607 L109.75605,4.93539536 L111.832004,4.93539536 C113.897518,4.93539536 115.136826,5.72996413 115.136826,7.57026607 C115.136826,9.4001151 113.897518,10.1216607 111.832004,10.1216607 L109.75605,10.1216607 Z" id="形状"></path>
                    </g>
                    <g id="logo/small" fill="#7CCB3C">
                        <g id="Fill-2">
                            <path d="M18,27 C18,31.9706301 13.9706301,36 9,36 C4.02945205,36 0,31.9706301 0,27 C0,22.0450685 4.00421918,18.0253151 8.95331507,18.0001644 C4.00438356,17.9747671 0,13.9550959 0,9.00024658 C0,4.02961644 4.02978082,0 9.00032877,0 C13.9519726,0 17.969589,3.9989589 18.0001644,8.94336986 C18.0306575,3.99879452 22.0483562,0 27,0 C31.9706301,0 36,4.02936986 36,9 C36,13.9694795 31.9723562,17.998274 27.0032877,18 C31.9723562,18.001726 36,22.0305205 36,27 C36,31.9706301 31.9706301,36 27,36 C22.0293699,36 18,31.9706301 18,27 M27,17.9730745 C22.0354489,17.9730745 18.0072931,13.9610526 17.9765551,9 C17.9460644,13.9454664 13.9431252,17.948087 9,17.9732394 C13.9607603,17.9986393 17.9746597,22.0299584 17.9763903,27 C17.9781208,22.0142897 22.0174841,17.9730745 27,17.9730745" id="Fill-1"></path>
                        </g>
                    </g>
                </g>
            </g>
        </g>
    </g>
</svg>