<?xml version="1.0" encoding="UTF-8"?>
<svg width="76px" height="76px" viewBox="0 0 76 76" version="1.1" xmlns="http://www.w3.org/2000/svg" xmlns:xlink="http://www.w3.org/1999/xlink">
    <title>Group 2</title>
    <defs>
        <circle id="path-1" cx="38" cy="38" r="38"></circle>
    </defs>
    <g id="页面-1" stroke="none" stroke-width="1" fill="none" fill-rule="evenodd">
        <g id="026Send" transform="translate(-142.000000, -621.000000)">
            <g id="Group-2" transform="translate(111.000000, 582.000000)">
                <g id="Stacked-Group" transform="translate(0.000000, 20.000000)">
                    <g id="list/home" transform="translate(31.000000, 19.000000)">
                        <g id="icon/circle/cor/2">
                            <g id="Group-2">
                                <g id="Group">
                                    <g id="位图">
                                        <mask id="mask-2" fill="white">
                                            <use xlink:href="#path-1"></use>
                                        </mask>
                                        <use id="蒙版" fill="#7CCB3C" xlink:href="#path-1"></use>
                                    </g>
                                </g>
                                <g id="logo/small" transform="translate(19.950000, 19.950000)" fill="#FFFFFF">
                                    <path d="M18.05,27.075 C18.05,32.0594374 14.0094374,36.1 9.025,36.1 C4.04064498,36.1 0,32.0594374 0,27.075 C0,22.1063048 4.01534201,18.0753854 8.97818539,18.0501648 C4.01550685,18.024697 0,13.99386 0,9.02524726 C0,4.04080982 4.04097466,0 9.02532968,0 C13.9907281,0 18.0195046,4.01006712 18.0501648,8.96821256 C18.0807427,4.00990228 22.1096016,0 27.075,0 C32.0594374,0 36.1,4.04056256 36.1,9.025 C36.1,14.0082836 32.0611683,18.0482692 27.0782968,18.05 C32.0611683,18.0517308 36.1,22.0917164 36.1,27.075 C36.1,32.0594374 32.0594374,36.1 27.075,36.1 C22.0905626,36.1 18.05,32.0594374 18.05,27.075 M27.075,18.0229997 C22.0966585,18.0229997 18.0573133,13.9998333 18.02649,9.025 C17.9959145,13.9842038 13.9818561,17.9979428 9.025,18.0231651 C13.9995402,18.0486355 18.0245893,22.0911528 18.0263247,27.075 C18.0280601,22.0754405 22.0786438,18.0229997 27.075,18.0229997" id="Fill-1"></path>
                                </g>
                            </g>
                        </g>
                    </g>
                </g>
            </g>
        </g>
    </g>
</svg>