<?xml version="1.0" encoding="UTF-8"?>
<svg width="90px" height="88px" viewBox="0 0 90 88" version="1.1" xmlns="http://www.w3.org/2000/svg" xmlns:xlink="http://www.w3.org/1999/xlink">
    <title>Group 2</title>
    <g id="页面-1" stroke="none" stroke-width="1" fill="none" fill-rule="evenodd">
        <g id="023-Send" transform="translate(-66.000000, -220.000000)" fill="#7CCB3C">
            <g id="Group" transform="translate(32.000000, 174.000000)">
                <g id="位图" transform="translate(34.241791, 46.000000)">
                    <g id="Group-2" transform="translate(0.758209, 0.000000)">
                        <g id="icon/circle/4" transform="translate(14.000000, 14.000000)">
                            <g id="logo/small" transform="translate(7.272727, 7.272727)">
                                <g id="Fill-2">
                                    <path d="M22.7272727,34.0909091 C22.7272727,40.3669572 17.6396845,45.4545455 11.3636364,45.4545455 C5.08769199,45.4545455 0,40.3669572 0,34.0909091 C0,27.8346824 5.0558323,22.7592362 11.3046907,22.7274803 C5.05603985,22.695413 0,17.6200706 0,11.3639477 C0,5.08789954 5.0881071,0 11.3640515,0 C17.616127,0 22.6888751,5.04919054 22.7274803,11.2921337 C22.7659817,5.04898298 27.8388335,0 34.0909091,0 C40.3669572,0 45.4545455,5.08758821 45.4545455,11.3636364 C45.4545455,17.6382316 40.3691366,22.7250934 34.0950602,22.7272727 C40.3691366,22.7294521 45.4545455,27.8163138 45.4545455,34.0909091 C45.4545455,40.3669572 40.3669572,45.4545455 34.0909091,45.4545455 C27.8148609,45.4545455 22.7272727,40.3669572 22.7272727,34.0909091 M34.0909091,22.6932759 C27.8225365,22.6932759 22.7364811,17.6275917 22.6976706,11.3636364 C22.6591722,17.6079121 17.604956,22.661726 11.3636364,22.6934841 C17.6272227,22.7255547 22.6952774,27.8156041 22.6974625,34.0909091 C22.6996475,27.7958203 27.7998537,22.6932759 34.0909091,22.6932759" id="Fill-1"></path>
                                </g>
                            </g>
                        </g>
                    </g>
                </g>
            </g>
        </g>
    </g>
</svg>