<svg id="图层_1" data-name="图层 1" xmlns="http://www.w3.org/2000/svg" xmlns:xlink="http://www.w3.org/1999/xlink" viewBox="0 0 511 522"><defs><style>.cls-1,.cls-12,.cls-2,.cls-22,.cls-3,.cls-43,.cls-44,.cls-45,.cls-46,.cls-48,.cls-51,.cls-7{fill:none;}.cls-1{clip-rule:evenodd;}.cls-3{fill-rule:evenodd;}.cls-4{clip-path:url(#clip-path);}.cls-5{clip-path:url(#clip-path-2);}.cls-6{fill:#fff;}.cls-12,.cls-7{stroke:#333;}.cls-12,.cls-22,.cls-48,.cls-51,.cls-7{stroke-miterlimit:10;}.cls-22,.cls-7{stroke-width:2px;}.cls-8{clip-path:url(#clip-path-4);}.cls-9{isolation:isolate;}.cls-10{clip-path:url(#clip-path-6);}.cls-11{clip-path:url(#clip-path-8);}.cls-12{stroke-width:4px;}.cls-13{clip-path:url(#clip-path-10);}.cls-14{clip-path:url(#clip-path-13);}.cls-15{clip-path:url(#clip-path-15);}.cls-16{clip-path:url(#clip-path-17);}.cls-17{clip-path:url(#clip-path-19);}.cls-18{fill:#ffab51;}.cls-19{clip-path:url(#clip-path-22);}.cls-20{clip-path:url(#clip-path-24);}.cls-21{clip-path:url(#clip-path-26);}.cls-22{stroke:#979797;stroke-dasharray:6 6;}.cls-23{clip-path:url(#clip-path-29);}.cls-24{clip-path:url(#clip-path-32);}.cls-25{clip-path:url(#clip-path-35);}.cls-26{clip-path:url(#clip-path-37);}.cls-27{clip-path:url(#clip-path-39);}.cls-28{clip-path:url(#clip-path-40);}.cls-29{fill:#ffac3d;}.cls-30{clip-path:url(#clip-path-43);}.cls-31{clip-path:url(#clip-path-46);}.cls-32{clip-path:url(#clip-path-49);}.cls-33{fill:#333;}.cls-34{clip-path:url(#clip-path-51);}.cls-35{clip-path:url(#clip-path-54);}.cls-36{clip-path:url(#clip-path-57);}.cls-37{clip-path:url(#clip-path-60);}.cls-38{clip-path:url(#clip-path-63);}.cls-39{clip-path:url(#clip-path-65);}.cls-40{clip-path:url(#clip-path-68);}.cls-41{clip-path:url(#clip-path-71);}.cls-42{clip-path:url(#clip-path-73);}.cls-43,.cls-48{stroke:#78d8e1;}.cls-43,.cls-44,.cls-45,.cls-46{stroke-linecap:round;stroke-linejoin:round;}.cls-43,.cls-44,.cls-46{stroke-width:6px;}.cls-43,.cls-44,.cls-45,.cls-46,.cls-48,.cls-51{opacity:0.5;}.cls-44,.cls-51{stroke:#f78a42;}.cls-45{stroke:#7db300;stroke-width:5px;}.cls-46{stroke:#f7b500;}.cls-47{clip-path:url(#clip-path-76);}.cls-48,.cls-51{stroke-width:12px;}.cls-49{clip-path:url(#clip-path-78);}.cls-50{clip-path:url(#clip-path-80);}</style><clipPath id="clip-path"><path class="cls-1" d="M312,496.42v13.17q-15.67,8.28-42.18,9.62t-48.37-9.62V496.42Z"/></clipPath><clipPath id="clip-path-2"><rect class="cls-2" x="-102.5" y="-543" width="712" height="1413"/></clipPath><clipPath id="clip-path-4"><path class="cls-1" d="M266.7,507.89c23.54,0,46.24-5.37,46.24-11.47s-20.7-11.05-46.24-11.05-46.24,4.95-46.24,11.05S243.16,507.89,266.7,507.89Z"/></clipPath><clipPath id="clip-path-6"><rect class="cls-2" x="199.5" y="465" width="134" height="63"/></clipPath><clipPath id="clip-path-8"><rect class="cls-2" x="219.5" y="485" width="94" height="23"/></clipPath><clipPath id="clip-path-10"><path class="cls-1" d="M323.54,477.2v13.17q-15.67,8.28-42.18,9.62T233,490.37V477.2Z"/></clipPath><clipPath id="clip-path-13"><path class="cls-1" d="M278.26,488.67c23.54,0,46.24-5.37,46.24-11.47s-20.7-11.05-46.24-11.05S232,471.09,232,477.2,254.72,488.67,278.26,488.67Z"/></clipPath><clipPath id="clip-path-15"><rect class="cls-2" x="211.5" y="446" width="133" height="63"/></clipPath><clipPath id="clip-path-17"><rect class="cls-2" x="231.5" y="466" width="93" height="23"/></clipPath><clipPath id="clip-path-19"><path class="cls-1" d="M311,457v13.17q-15.67,8.28-42.18,9.62t-48.37-9.62V457Z"/></clipPath><clipPath id="clip-path-22"><path class="cls-1" d="M265.74,468.48c23.54,0,46.24-5.37,46.24-11.47S291.28,446,265.74,446,219.5,450.91,219.5,457,242.2,468.48,265.74,468.48Z"/></clipPath><clipPath id="clip-path-24"><rect class="cls-2" x="199.5" y="425" width="133" height="64"/></clipPath><clipPath id="clip-path-26"><rect class="cls-2" x="219.5" y="445" width="93" height="24"/></clipPath><clipPath id="clip-path-29"><path class="cls-1" d="M189,152q2.47-4.12-10.65-19.35T166,106.31q3.46-8,0-8c-3.46,0-4.71,3.87-6.78,3.87s-3.7-7.23-7.65-7.23-10.4,0-8.33,9.95,11,10.09,13.61,15.36,10,32.75,15.78,38Q178.37,163.41,189,152Z"/></clipPath><clipPath id="clip-path-32"><path class="cls-1" d="M293.17,133.86q21.61,7.08,21.61,3.54V114.1q-3.1-28.72,0-31.51c3.1-2.79,6.21-12.19,3.34-18.74s-6.25-6.79-11-4.66-3.4,9.94-6.64,12.55-7.26-6.92-7.26-1.35,7.26,13.3,7.26,18.73Q300.43,94.57,293.17,133.86Z"/></clipPath><clipPath id="clip-path-35"><path class="cls-1" d="M289.49,127.38a62.92,62.92,0,0,1,17.58,0q7.35,1.23,13.74,2.37-1.37,21.15-5.13,31.65T301.74,184q5.31,5,9.7,28t-4.38,47.5q-63.2,9.8-71.67,16.94t-17.7-3.94L214.35,205q-31.42-11.54-43.13-36.73l-6-13.79q7.56-1.37,13.74-2.46t12.12-9.78q17.33,23.39,23.24,28a56.32,56.32,0,0,1,12.08-4.89c7.61-2.27,28-3.92,35.94-3.92s15.3-3.3,18-7Q283,150.79,289.49,127.38ZM145.26,106.77H340.81V299.21H145.26Z"/></clipPath><clipPath id="clip-path-37"><path class="cls-1" d="M289.49,127.38a62.92,62.92,0,0,1,17.58,0q7.35,1.23,13.74,2.37-1.37,21.15-5.13,31.65T301.74,184q5.31,5,9.7,28t-4.38,47.5q-63.2,9.8-71.67,16.94t-17.7-3.94L214.35,205q-31.42-11.54-43.13-36.73l-6-13.79q7.56-1.37,13.74-2.46t12.12-9.78q17.33,23.39,23.24,28a56.32,56.32,0,0,1,12.08-4.89c7.61-2.27,28-3.92,35.94-3.92s15.3-3.3,18-7Q283,150.79,289.49,127.38Z"/></clipPath><clipPath id="clip-path-39"><rect class="cls-2" x="144.5" y="106" width="197" height="194"/></clipPath><clipPath id="clip-path-40"><rect class="cls-2" x="164.5" y="126" width="157" height="156"/></clipPath><clipPath id="clip-path-43"><path class="cls-1" d="M202.92,224.46q47.95-33,116.34-33l1.36,18.29q-96,12.15-120.71,37.43L202,230.37Z"/></clipPath><clipPath id="clip-path-46"><polygon class="cls-1" points="268.9 417.8 262.31 428.96 274.49 437.82 284.9 426.04 268.9 417.8"/></clipPath><clipPath id="clip-path-49"><path class="cls-1" d="M262.2,425.83q3.82,5.38,6,6.68c2.16,1.3,8.52,2.5,9.22,4.26q.7,1.76-5.59,5.39-1.09,8,1.44,9.88a11.74,11.74,0,0,1,4.16,7.54q.38,2.5-2.67,4.45-8.76-3.6-12.47-7.49T257.9,452l-3.3-3.27q-7.88-4.52-6.31-7.14l5.51-9.17q.68-1.13,5.47-2.6Z"/></clipPath><clipPath id="clip-path-51"><polygon class="cls-1" points="151.53 345.58 142.35 358.18 154.81 368.04 166.09 354.2 151.53 345.58"/></clipPath><clipPath id="clip-path-54"><path class="cls-1" d="M221.25,273.22q1.84,40.14,1.84,59.86t-4.3,29.32l-55.71-14.64-15.57,21q27.62,21.53,41.9,28.19c14.27,6.66,22.49,6.66,33.69,4.21s17.27-5.76,28.42-13,19.94-33.27,19.94-64.73V308.63q15,16.6,22.65,24.45c7.66,7.85,8.85,5.2,3.06,13.29s-12.1,18.4-18.91,34.5q-6.8,16.09-15.6,37.66l21.26,14.75q57.51-61.1,62.51-70.88c2.38-4.66,10.36-17.28,8.56-29.32-2-13.23-8.45-25.15-18.34-40q-9.89-14.89-30.44-33.58Z"/></clipPath><clipPath id="clip-path-57"><path class="cls-1" d="M258.8,147q1.59,9.95,7.09,12.75-1.09,4.74-9.29,7c-8.2,2.28-16.79-3.6-16.79-4.69q4.73-5.27,4.73-6.51a49.56,49.56,0,0,1,1.3-7Z"/></clipPath><clipPath id="clip-path-60"><path class="cls-1" d="M255.58,106q10.19,9.49,11.77,19.26c1.58,9.77-.5,15.59-1.46,17.45s-2.67,7.42-14.52,10.71q-11.85,3.29-28.1-10.71l-6.77-10,26.57-24.24Z"/></clipPath><clipPath id="clip-path-63"><circle class="cls-2" cx="257.5" cy="127" r="2"/></clipPath><clipPath id="clip-path-65"><path class="cls-1" d="M253.4,105.68a3.72,3.72,0,0,1,3.89-3c3,0,5.12.86,5.12,6.21q0,5.34-3.16,6.74a15.47,15.47,0,0,1-5.22,1.05,11.06,11.06,0,0,1-4.63-1.05q4.32,5.23-1,5.23c-5.31,0-.42.82-1.91,5Q245,130,243,128.53q3.15,3.44-1,3.44c-4.17,0-6,3.68-4.6,8.23s10.89,4.31,8.25,4.43-1.31,1.87-2,4.06,3.93,5.66-1.69,5.66-5.48,1.39-5.48,1.39-.46,3.5-4.73,2.52-7.36,4.54-9.66-2.52-3.57-4.24-5.56-5-2.28-6.11-2.28-6.11-4.87,4.74-4.87-3.92,1.15-7.58,1.15-9.88,2.27-9.5,6.91-9.5,14.31-1.47,14.31-5.72q0-4.25,17.69-6.74Z"/></clipPath><clipPath id="clip-path-68"><path class="cls-1" d="M221.71,127.51q-21.26,13.55-25,13.55t4.77-6.78L218.59,124Z"/></clipPath><clipPath id="clip-path-71"><path class="cls-1" d="M154.36,345.7q-5.17,4.09-6.36,6.32c-1.18,2.22-2,8.64-3.77,9.43q-1.72.79-5.67-5.3-8-.67-9.79,2a11.74,11.74,0,0,1-7.31,4.54q-2.48.51-4.59-2.44,3.13-8.94,6.83-12.84t4.26-4.58l3.09-3.47q4.1-8.11,6.8-6.67l9.45,5q1.17.62,2.88,5.32Z"/></clipPath><clipPath id="clip-path-73"><path class="cls-1" d="M255,106.72q-32.46,24.15-42.36,26.74-4.18-9-4.18-15.26c0-6.25,5-20.63,21-22.92Q245.46,93,255,106.72Z"/></clipPath><clipPath id="clip-path-76"><circle class="cls-2" cx="13.5" cy="324" r="11"/></clipPath><clipPath id="clip-path-78"><circle class="cls-2" cx="368.5" cy="450.96" r="11"/></clipPath><clipPath id="clip-path-80"><circle class="cls-2" cx="432.5" cy="114" r="11"/></clipPath></defs><title>success</title><g class="cls-4"><g class="cls-5"><rect class="cls-6" x="216.43" y="491.42" width="100.55" height="32.94"/></g></g><g class="cls-5"><path class="cls-7" d="M312,496.42v13.17q-15.67,8.28-42.18,9.62t-48.37-9.62V496.42Z"/></g><g class="cls-8"><g class="cls-5"><g class="cls-9"><g class="cls-10"><g class="cls-8"><g class="cls-11"><path class="cls-6" d="M266.7,507.89c23.54,0,46.24-5.37,46.24-11.47s-20.7-11.05-46.24-11.05-46.24,4.95-46.24,11.05S243.16,507.89,266.7,507.89Z"/></g></g><g class="cls-11"><path class="cls-12" d="M266.7,507.89c23.54,0,46.24-5.37,46.24-11.47s-20.7-11.05-46.24-11.05-46.24,4.95-46.24,11.05S243.16,507.89,266.7,507.89Z"/></g></g></g></g></g><g class="cls-13"><g class="cls-5"><rect class="cls-6" x="227.99" y="472.2" width="100.55" height="32.94"/></g></g><g class="cls-5"><path class="cls-7" d="M323.54,477.2v13.17q-15.67,8.28-42.18,9.62T233,490.37V477.2Z"/></g><g class="cls-14"><g class="cls-5"><g class="cls-9"><g class="cls-15"><g class="cls-14"><g class="cls-16"><path class="cls-6" d="M278.26,488.67c23.54,0,46.24-5.37,46.24-11.47s-20.7-11.05-46.24-11.05S232,471.09,232,477.2,254.72,488.67,278.26,488.67Z"/></g></g><g class="cls-16"><path class="cls-12" d="M278.26,488.67c23.54,0,46.24-5.37,46.24-11.47s-20.7-11.05-46.24-11.05S232,471.09,232,477.2,254.72,488.67,278.26,488.67Z"/></g></g></g></g></g><g class="cls-17"><g class="cls-5"><rect class="cls-18" x="215.46" y="452.01" width="100.55" height="32.94"/></g></g><g class="cls-5"><path class="cls-7" d="M311,457v13.17q-15.67,8.28-42.18,9.62t-48.37-9.62V457Z"/></g><g class="cls-19"><g class="cls-5"><g class="cls-9"><g class="cls-20"><g class="cls-19"><g class="cls-21"><path class="cls-6" d="M265.74,468.48c23.54,0,46.24-5.37,46.24-11.47S291.28,446,265.74,446,219.5,450.91,219.5,457,242.2,468.48,265.74,468.48Z"/></g></g><g class="cls-21"><path class="cls-12" d="M265.74,468.48c23.54,0,46.24-5.37,46.24-11.47S291.28,446,265.74,446,219.5,450.91,219.5,457,242.2,468.48,265.74,468.48Z"/></g></g></g></g></g><g class="cls-5"><path class="cls-22" d="M239.81,1Q203.12,29.47,219.5,58t65.4,44.66Q337.17,115.5,355.26,125c18.08,9.5,36.24,53.1-30.76,78s-164.31,35.18-181.71,60.63,19.52,34.77,46.61,43S389,325.19,378.5,373.25s-151.11,28.19-162,71.21"/></g><g class="cls-23"><g class="cls-5"><rect class="cls-6" x="137.79" y="89.93" width="56.61" height="74.9"/></g></g><g class="cls-5"><path class="cls-7" d="M189,152q2.47-4.12-10.65-19.35T166,106.31q3.46-8,0-8c-3.46,0-4.71,3.87-6.78,3.87s-3.7-7.23-7.65-7.23-10.4,0-8.33,9.95,11,10.09,13.61,15.36,10,32.75,15.78,38Q178.37,163.41,189,152Z"/></g><g class="cls-24"><g class="cls-5"><rect class="cls-6" x="288.17" y="53" width="36.08" height="90.59"/></g></g><g class="cls-5"><path class="cls-7" d="M293.17,133.86q21.61,7.08,21.61,3.54V114.1q-3.1-28.72,0-31.51c3.1-2.79,6.21-12.19,3.34-18.74s-6.25-6.79-11-4.66-3.4,9.94-6.64,12.55-7.26-6.92-7.26-1.35,7.26,13.3,7.26,18.73Q300.43,94.57,293.17,133.86Z"/></g><g class="cls-25"><g class="cls-5"><path class="cls-12" d="M289.49,127.38a62.93,62.93,0,0,1,17.58,0q7.35,1.23,13.74,2.37-1.37,21.15-5.13,31.65T301.74,184q5.31,5,9.7,28t-4.38,47.5q-63.2,9.8-71.67,16.94t-17.7-3.94L214.35,205q-31.42-11.54-43.13-36.73l-6-13.79q7.56-1.37,13.74-2.46t12.12-9.78q17.33,23.39,23.24,28a56.33,56.33,0,0,1,12.08-4.89c7.61-2.27,28-3.92,35.94-3.92s15.3-3.3,18-7Q283,150.79,289.49,127.38Z"/></g></g><g class="cls-26"><g class="cls-5"><g class="cls-9"><g class="cls-27"><g class="cls-28"><rect class="cls-29" x="160.26" y="121.77" width="165.56" height="162.44"/></g><g class="cls-25"><g class="cls-28"><path class="cls-12" d="M289.49,127.38a62.93,62.93,0,0,1,17.58,0q7.35,1.23,13.74,2.37-1.37,21.15-5.13,31.65T301.74,184q5.31,5,9.7,28t-4.38,47.5q-63.2,9.8-71.67,16.94t-17.7-3.94L214.35,205q-31.42-11.54-43.13-36.73l-6-13.79q7.56-1.37,13.74-2.46t12.12-9.78q17.33,23.39,23.24,28a56.33,56.33,0,0,1,12.08-4.89c7.61-2.27,28-3.92,35.94-3.92s15.3-3.3,18-7Q283,150.79,289.49,127.38Z"/></g></g><g class="cls-30"><g class="cls-28"><rect class="cls-6" x="194.89" y="186.47" width="130.71" height="65.71"/></g></g><g class="cls-28"><path class="cls-7" d="M202.92,224.46q47.95-33,116.34-33l1.36,18.29q-96,12.15-120.71,37.43L202,230.37Z"/></g></g></g></g></g><g class="cls-31"><g class="cls-5"><rect class="cls-6" x="257.31" y="412.8" width="32.59" height="30.03"/></g></g><g class="cls-5"><polygon class="cls-7" points="268.89 417.8 262.31 428.96 274.49 437.82 284.9 426.04 268.89 417.8"/></g><g class="cls-32"><g class="cls-5"><rect class="cls-33" x="248.5" y="421.96" width="37" height="45" transform="translate(-251.49 444.41) rotate(-59)"/></g></g><g class="cls-34"><g class="cls-5"><rect class="cls-6" x="137.35" y="340.59" width="33.74" height="32.46"/></g></g><g class="cls-5"><polygon class="cls-7" points="151.53 345.58 142.35 358.18 154.81 368.04 166.09 354.2 151.53 345.58"/></g><g class="cls-35"><g class="cls-5"><rect class="cls-33" x="142.51" y="254.46" width="217.75" height="183.82"/></g></g><g class="cls-5"><path class="cls-7" d="M221.25,273.22q1.84,40.14,1.84,59.86t-4.3,29.32l-55.71-14.64-15.57,21q27.62,21.53,41.9,28.19c14.27,6.66,22.49,6.66,33.69,4.21s17.27-5.76,28.42-13,19.94-33.27,19.94-64.73V308.63q15,16.6,22.65,24.45c7.66,7.85,8.85,5.2,3.06,13.29s-12.1,18.4-18.91,34.5q-6.8,16.09-15.6,37.66l21.26,14.75q57.51-61.1,62.51-70.88c2.38-4.66,10.36-17.28,8.56-29.32-2-13.23-8.45-25.15-18.34-40q-9.89-14.89-30.44-33.58Z"/></g><g class="cls-36"><g class="cls-5"><rect class="cls-6" x="234.81" y="141.96" width="36.08" height="30.3"/></g></g><g class="cls-5"><path class="cls-7" d="M258.8,147q1.59,9.95,7.09,12.75-1.09,4.74-9.29,7c-8.2,2.28-16.79-3.6-16.79-4.69q4.73-5.27,4.73-6.51a49.55,49.55,0,0,1,1.3-7Z"/></g><g class="cls-37"><g class="cls-5"><rect class="cls-6" x="211.5" y="100.96" width="61.43" height="58.04"/></g></g><g class="cls-5"><path class="cls-7" d="M255.58,106q10.19,9.49,11.77,19.26c1.58,9.77-.5,15.59-1.46,17.45s-2.67,7.42-14.52,10.71q-11.85,3.29-28.1-10.71l-6.77-10,26.57-24.24Z"/></g><g class="cls-38"><g class="cls-5"><rect class="cls-33" x="250.5" y="120" width="14" height="14"/></g></g><g class="cls-39"><g class="cls-5"><rect class="cls-33" x="204.35" y="97.66" width="63.06" height="66.74"/></g></g><g class="cls-5"><path class="cls-7" d="M253.4,105.68a3.72,3.72,0,0,1,3.89-3c3,0,5.12.86,5.12,6.21q0,5.34-3.16,6.74a15.47,15.47,0,0,1-5.22,1.05,11.06,11.06,0,0,1-4.63-1.05q4.32,5.23-1,5.23c-5.31,0-.42.82-1.91,5Q245,130,243,128.53q3.15,3.44-1,3.44c-4.17,0-6,3.68-4.6,8.23s10.89,4.31,8.25,4.43-1.31,1.87-2,4.06,3.93,5.66-1.69,5.66-5.48,1.39-5.48,1.39-.46,3.5-4.73,2.52-7.36,4.54-9.66-2.52-3.57-4.24-5.56-5-2.28-6.11-2.28-6.11-4.87,4.74-4.87-3.92,1.15-7.58,1.15-9.88,2.27-9.5,6.91-9.5,14.31-1.47,14.31-5.72q0-4.25,17.69-6.74Z"/></g><g class="cls-40"><g class="cls-5"><rect class="cls-6" x="190.5" y="118.96" width="36.21" height="27.1"/></g></g><g class="cls-5"><path class="cls-7" d="M221.71,127.51q-21.26,13.55-25,13.55t4.77-6.78L218.59,124Z"/></g><g class="cls-41"><g class="cls-5"><rect class="cls-33" x="113.5" y="332.96" width="45" height="37" transform="translate(-238.17 306.54) rotate(-62)"/></g></g><g class="cls-42"><g class="cls-5"><rect class="cls-29" x="203.5" y="89.96" width="56.54" height="48.5"/></g></g><g class="cls-5"><path class="cls-7" d="M255,106.72q-32.46,24.15-42.36,26.74-4.18-9-4.18-15.26c0-6.25,5-20.63,21-22.92Q245.46,93,255,106.72Z"/><path class="cls-43" d="M433.5,161a29.23,29.23,0,0,0-5.9,9.68c-1.74,5-3.28,9.83-7.28,9.83s-14.39-.9-18,3.54-3.8,6.51,0,15"/><path class="cls-44" d="M113.45,159.18a29.23,29.23,0,0,0-5.43-9.95c-3.44-4-6.87-7.75-4.87-11.22s8-12,6-17.39-3.74-6.55-13-7.48"/><path class="cls-45" d="M33.5,211.5Q37,207,40,207c2.92,0,4.25,2.18,4.25,5.45s-.61,5.31,1,6.15,5.54-.84,6.73,0,3.53,1.57,3.53,6.54q0,5-.8,3.55"/><path class="cls-45" d="M96.15,439.66q-4.68,8.78-9.65,9.66c-5,.88-7.88-2.44-8.86-8s-.56-9.21-3.57-10.15-9.16,3.09-11.45,2-6.48-1.61-8-10.07q-1.49-8.45.3-6.27"/><path class="cls-45" d="M473.2,372.31Q482,377,482.85,382c.88,5-2.44,7.88-8,8.86s-9.21.56-10.15,3.57,3.09,9.16,2,11.45-1.61,6.48-10.07,8q-8.45,1.49-6.27-.3"/><path class="cls-44" d="M494.74,245q7.73,5.81,8.1,10.23c.36,4.42-4.85,6.89-6.07,9.26s-2.39,7.46,5.89,12.89"/><path class="cls-46" d="M83.5,289.49q8.9-3.79,12.91-1.9c4,1.9,3.54,7.64,5,9.89s5.27,5.81,14.1,1.35"/><path class="cls-46" d="M393.5,308.49q8.9-3.79,12.91-1.9c4,1.9,3.54,7.64,5,9.89s5.27,5.81,14.1,1.35"/></g><g class="cls-47"><g class="cls-5"><circle class="cls-48" cx="13.5" cy="324" r="11"/></g></g><g class="cls-49"><g class="cls-5"><circle class="cls-48" cx="368.5" cy="450.96" r="11"/></g></g><g class="cls-50"><g class="cls-5"><circle class="cls-51" cx="432.5" cy="114" r="11"/></g></g></svg>