<?xml version="1.0" encoding="UTF-8"?>
<svg width="76px" height="76px" viewBox="0 0 76 76" version="1.1" xmlns="http://www.w3.org/2000/svg" xmlns:xlink="http://www.w3.org/1999/xlink">
    <title>位图</title>
    <defs>
        <circle id="path-1" cx="38" cy="38" r="38"></circle>
    </defs>
    <g id="页面-1" stroke="none" stroke-width="1" fill="none" fill-rule="evenodd">
        <g id="016-Asset-page" transform="translate(-42.000000, -1192.000000)">
            <g id="Stacked-Group" transform="translate(40.000000, 667.000000)">
                <g id="list/home" transform="translate(2.000000, 525.000000)">
                    <g id="首页列表">
                        <g id="icon/circle/cor/2">
                            <g>
                                <g id="位图">
                                    <mask id="mask-2" fill="white">
                                        <use xlink:href="#path-1"></use>
                                    </mask>
                                    <use id="蒙版" fill="#FF007B" xlink:href="#path-1"></use>
                                    <path d="M38,13.3 C27.5449735,13.3 19,21.7830223 19,32.2738606 C19,34.3820673 19.3518519,36.4400786 20.005291,38.4478946 C20.457672,39.8031703 21.9656085,40.5561013 23.3730159,40.1043427 C24.7301587,39.6525841 25.484127,38.1467222 25.031746,36.741251 C24.478836,35.1851937 24.2275132,33.5287455 24.2777778,31.8722974 C24.478836,24.7947462 30.2089947,18.97208 37.2962963,18.6207122 C45.1878307,18.219149 51.7222222,24.4935738 51.7222222,32.2738606 C51.7222222,39.5521933 45.9920635,45.5254458 38.8042328,45.9270089 C38.8042328,45.9270089 36.1402116,46.0775951 34.8333333,46.2783767 C34.1798942,46.3787675 33.6772487,46.4791583 33.3253968,46.5293537 C33.1746032,46.5795491 33.0238095,46.4289629 33.0740741,46.2783767 L33.526455,44.0697792 L35.989418,32.7256192 C36.2910053,31.320148 35.3862434,29.9146769 33.978836,29.6135045 C32.5714286,29.3123321 31.1640212,30.2158493 30.8624339,31.6213204 C30.8624339,31.6213204 24.9312169,59.2287895 24.8809524,59.5299619 C24.5793651,60.9354331 25.484127,62.3409042 26.8915344,62.6420766 C28.2989418,62.943249 29.7063492,62.0397318 30.0079365,60.6342607 C30.0582011,60.3330883 30.8624339,56.6688242 30.8624339,56.6688242 C31.4656085,53.8578819 33.7777778,51.7998706 36.4920635,51.4485028 C37.0952381,51.348112 39.457672,51.1975258 39.457672,51.1975258 C49.2592593,50.4445948 57,42.2627449 57,32.2738606 C57,21.7830223 48.4550265,13.3 38,13.3 Z" id="Path" fill="#FFFFFF" mask="url(#mask-2)"></path>
                                </g>
                            </g>
                        </g>
                    </g>
                </g>
            </g>
        </g>
    </g>
</svg>