<svg width="20" height="14" viewBox="0 0 20 14" fill="none" xmlns="http://www.w3.org/2000/svg">
<path fill-rule="evenodd" clip-rule="evenodd" d="M10 13.25C4.47715 13.25 0 7 0 7C0 7 4.47715 0.75 10 0.75C15.5228 0.75 20 7 20 7C20 7 15.5228 13.25 10 13.25ZM3.90923 8.98965C3.07511 8.26945 2.39567 7.54536 1.92443 7C2.39567 6.45464 3.07511 5.73055 3.90923 5.01035C5.62795 3.52636 7.7818 2.25 10 2.25C12.2182 2.25 14.3721 3.52636 16.0908 5.01035C16.9249 5.73055 17.6043 6.45464 18.0756 7C17.6043 7.54536 16.9249 8.26945 16.0908 8.98965C14.3721 10.4736 12.2182 11.75 10 11.75C7.7818 11.75 5.62795 10.4736 3.90923 8.98965ZM12.0007 6.75C12.0007 7.85457 11.1052 8.75 10.0007 8.75C8.89608 8.75 8.00065 7.85457 8.00065 6.75C8.00065 5.64543 8.89608 4.75 10.0007 4.75C11.1052 4.75 12.0007 5.64543 12.0007 6.75ZM13.5007 6.75C13.5007 8.683 11.9336 10.25 10.0007 10.25C8.06765 10.25 6.50065 8.683 6.50065 6.75C6.50065 4.817 8.06765 3.25 10.0007 3.25C11.9336 3.25 13.5007 4.817 13.5007 6.75Z" fill="#131927"/>
</svg>
