<?xml version="1.0" encoding="UTF-8"?>
<svg width="23px" height="22px" viewBox="0 0 23 22" version="1.1" xmlns="http://www.w3.org/2000/svg" xmlns:xlink="http://www.w3.org/1999/xlink">
    <title>Combined Shape</title>
    <g id="é¡µé¢-1" stroke="none" stroke-width="1" fill="none" fill-rule="evenodd">
        <g id="023-Send" transform="translate(-52.000000, -972.000000)" fill="#FFAC3D" fill-rule="nonzero">
            <g id="Group-6" transform="translate(40.000000, 467.000000)">
                <g id="Group-5" transform="translate(12.000000, 20.000000)">
                    <g id="list/activity-list" transform="translate(0.000000, 444.000000)">
                        <g id="Group-2" transform="translate(0.000000, 40.000000)">
                            <g id="Group">
                                <g id="list/activity-list/icon" transform="translate(0.000000, 1.000000)">
                                    <g id="Group-13">
                                        <path d="M20.5818,9.2852 C21.3614961,9.2852 22.0022487,9.88008808 22.0749334,10.64074 L22.0818,10.7852 L22.0818,15.5352 C22.0818,16.8612613 21.0501064,17.9452849 19.7461568,18.0298851 L19.5818,18.0352 L8.9958,18.035 L9.97001012,19.0090898 C10.5558794,19.5947934 10.5560138,20.5445408 9.97031021,21.1304101 C9.42121311,21.6796626 8.55215557,21.7141089 7.96292686,21.2336644 L7.84898988,21.1307102 L4.31398988,17.5967102 C3.9968983,17.2797083 3.85138767,16.856066 3.87747433,16.4411916 C3.85129669,16.0567938 3.97244389,15.6642609 4.23891217,15.3563018 L4.34515395,15.2454241 L7.88015395,11.9104241 C8.48273856,11.3419319 9.43208382,11.3695693 10.0005759,11.972154 C10.5335373,12.537077 10.5425567,13.4067702 10.0450878,13.9816982 L9.93884605,14.0925759 L8.9388,15.035 L19.081,15.035 L19.0818,10.7852 C19.0818,10.0055039 19.6766881,9.36475132 20.43734,9.29206658 L20.5818,9.2852 Z M13.8371378,0.336369556 L13.9510602,0.439339828 L17.4850602,3.97333983 C17.9930468,4.4813265 18.0605138,5.26301703 17.6874611,5.84370629 C17.549986,6.15195528 17.3162132,6.39589661 17.032867,6.54933524 L13.9510602,9.62906017 C13.3652737,10.2148466 12.4155263,10.2148466 11.8297398,9.62906017 C11.280565,9.07988539 11.2462416,8.21082298 11.7267696,7.62166224 L11.8297398,7.50773983 L12.8018,6.534 L2.999,6.534 L2.9998,10.7852 C2.9998,11.6136271 2.32822712,12.2852 1.4998,12.2852 C0.720103883,12.2852 0.0793513218,11.6903119 0.00666657806,10.92966 L-0.0002,10.7852 L-0.0002,6.0342 C-0.0002,4.70898996 1.03159836,3.6241832 2.3354558,3.53951899 L2.4998,3.5342 L12.8028,3.534 L11.8297398,2.56066017 C11.2439534,1.97487373 11.2439534,1.02512627 11.8297398,0.439339828 C12.3789146,-0.109834957 13.247977,-0.144158381 13.8371378,0.336369556 Z" id="Combined-Shape"></path>
                                    </g>
                                </g>
                            </g>
                        </g>
                    </g>
                </g>
            </g>
        </g>
    </g>
</svg>