<svg width="42" height="42" viewBox="0 0 42 42" fill="none" xmlns="http://www.w3.org/2000/svg">
<circle cx="21" cy="21" r="20.5" fill="white" stroke="#ECEFF2"/>
<path d="M32.3332 13.6438C31.947 13.3492 31.4865 12.9469 30.6473 12.8463C29.8601 12.7457 29.058 13.2558 28.5158 13.5935C27.9737 13.9313 26.9488 14.9228 26.5255 15.2246C26.1022 15.5264 25.0179 15.8066 23.2726 16.8197C21.5273 17.8329 14.6799 22.0866 14.6799 22.0866L16.4623 22.1081L8.51574 26.0672H9.3104L8.16669 26.9079C8.16669 26.9079 9.17672 27.1665 10.0234 26.6492V26.8863C10.0234 26.8863 19.485 23.2793 21.3119 24.2134L20.1979 24.5295C20.2945 24.5295 22.0917 24.6445 22.0917 24.6445C22.0917 24.6445 22.1512 25.7295 23.2355 26.4265C24.3198 27.1162 24.342 27.4971 24.342 27.4971C24.342 27.4971 23.7776 27.7198 23.7776 28C23.7776 28 24.6094 27.7557 25.3818 27.7773C26.1542 27.7989 26.83 28 26.83 28C26.83 28 26.7706 27.6983 26.0205 27.4971C25.2629 27.2887 24.5277 26.5055 24.1638 26.0744C23.7999 25.6433 23.5474 24.8744 23.8593 24.1056C24.1192 23.4518 25.0253 23.0925 26.8968 22.1584C29.1026 21.0519 29.6076 20.2327 29.9195 19.5933C30.2314 18.9538 30.6919 17.682 30.9518 17.0856C31.2786 16.3168 31.6796 15.9072 32.0138 15.6629C32.3406 15.4186 33.8334 14.8797 33.8334 14.8797C33.8334 14.8797 32.6971 13.9241 32.3332 13.6438Z" fill="black"/>
</svg>
