<svg width="52" height="52" viewBox="0 0 52 52" fill="none" xmlns="http://www.w3.org/2000/svg">
<path fill-rule="evenodd" clip-rule="evenodd" d="M26 39C26 46.1798 20.1798 52 13 52C5.82032 52 0 46.1798 0 39C0 31.8429 5.78387 26.0366 12.9326 26.0002C5.78411 25.9636 0.000474886 20.1574 0.000474886 13.0004C0.000474886 5.82056 5.8208 0.000356164 13.0005 0.000356164C20.1528 0.000356164 25.9561 5.77627 26.0002 12.9182C26.0443 5.77604 31.8476 0 39 0C46.1798 0 52 5.8202 52 13C52 20.1781 46.1823 25.9975 39.0047 26C46.1823 26.0025 52 31.8219 52 39C52 46.1798 46.1798 52 39 52C31.8202 52 26 46.1798 26 39ZM39 25.9611C31.829 25.9611 26.0105 20.166 25.9661 13C25.9221 20.1435 20.1401 25.925 13 25.9613C20.1655 25.998 25.9634 31.8211 25.9659 39C25.9684 31.7984 31.803 25.9611 39 25.9611Z" fill="#27A577"/>
</svg>
