<?xml version="1.0" encoding="UTF-8"?>
<svg width="24px" height="24px" viewBox="0 0 24 24" version="1.1" xmlns="http://www.w3.org/2000/svg" xmlns:xlink="http://www.w3.org/1999/xlink">
    <title>Fill 1</title>
    <g id="页面-1" stroke="none" stroke-width="1" fill="none" fill-rule="evenodd">
        <g id="016-Asset-page" transform="translate(-44.000000, -146.000000)" fill="#7CCB3C">
            <g id="bar/home" transform="translate(40.000000, 38.000000)">
                <g id="Group-9">
                    <g id="Group-2" transform="translate(1.000000, 100.000000)">
                        <g id="编组-3" transform="translate(0.000000, 5.000000)">
                            <g id="bar/home/logo" transform="translate(3.000000, 3.000000)">
                                <g id="logo/small">
                                    <g id="Fill-2">
                                        <path d="M12,18 C12,21.3137534 9.31375342,24 6,24 C2.68630137,24 0,21.3137534 0,18 C0,14.6967123 2.66947945,12.0168767 5.96887671,12.0001096 C2.66958904,11.9831781 0,9.30339726 0,6.00016438 C0,2.68641096 2.68652055,0 6.00021918,0 C9.30131507,0 11.979726,2.6659726 12.0001096,5.96224658 C12.0204384,2.66586301 14.6989041,0 18,0 C21.3137534,0 24,2.68624658 24,6 C24,9.3129863 21.3149041,11.9988493 18.0021918,12 C21.3149041,12.0011507 24,14.6870137 24,18 C24,21.3137534 21.3137534,24 18,24 C14.6862466,24 12,21.3137534 12,18 M18,11.9820497 C14.6902993,11.9820497 12.004862,9.30736843 11.9843701,6 C11.9640429,9.29697758 9.29541678,11.9653913 6,11.9821596 C9.30717356,11.9990929 11.9831065,14.686639 11.9842602,18 C11.9854139,14.6761931 14.6783227,11.9820497 18,11.9820497" id="Fill-1"></path>
                                    </g>
                                </g>
                            </g>
                        </g>
                    </g>
                </g>
            </g>
        </g>
    </g>
</svg>