<?xml version="1.0" encoding="UTF-8"?>
<svg width="180px" height="180px" viewBox="0 0 180 180" version="1.1" xmlns="http://www.w3.org/2000/svg" xmlns:xlink="http://www.w3.org/1999/xlink">
    <title>编组</title>
    <defs>
        <linearGradient x1="59.3504304%" y1="-75.8547415%" x2="33.6551214%" y2="138.444229%" id="linearGradient-1">
            <stop stop-color="#76B96D" offset="0%"></stop>
            <stop stop-color="#4BA871" offset="100%"></stop>
        </linearGradient>
    </defs>
    <g id="页面-1" stroke="none" stroke-width="1" fill="none" fill-rule="evenodd">
        <g id="007-Write-down-seed-phrase" transform="translate(-267.000000, -503.000000)">
            <g id="编组" transform="translate(267.000000, 503.000000)">
                <circle id="椭圆形" stroke="#333333" stroke-width="4" fill="#FFFFFF" cx="90" cy="90" r="88"></circle>
                <circle id="椭圆形" stroke="#333333" stroke-width="2" fill="#FFFFFF" cx="90.5" cy="90.5" r="65.5"></circle>
                <path d="M90,73 C80.5032401,73 71.5701953,75.7252005 63.7756799,80.5158589 C55.9558679,85.3220651 49.2817366,92.2037217 44.3190622,100.500089 C49.2812643,108.797241 55.9560296,115.678857 63.7765366,120.484969 C71.5709026,125.275016 80.503616,128 90,128 C99.4965269,128 108.429366,125.274933 116.223878,120.484496 C124.043807,115.678439 130.718223,108.796959 135.681504,100.500776 C130.719334,92.2034361 124.044519,85.3215854 116.223909,80.5153043 C108.429438,75.7250874 99.4965649,73 90,73 Z" id="形状结合" stroke="#333333" stroke-width="4" fill="#FFFFFF"></path>
                <path d="M90,61 C80.5032401,61 71.5701953,63.7252005 63.7756799,68.5158589 C55.9558679,73.3220651 49.2817366,80.2037217 44.3190622,88.500089 C49.2812643,96.797241 55.9560296,103.678857 63.7765366,108.484969 C71.5709026,113.275016 80.503616,116 90,116 C99.4965269,116 108.429366,113.274933 116.223878,108.484496 C124.043807,103.678439 130.718223,96.7969585 135.681504,88.5007756 C130.719334,80.2034361 124.044519,73.3215854 116.223909,68.5153043 C108.429438,63.7250874 99.4965649,61 90,61 Z" id="形状结合" stroke="#333333" stroke-width="4" fill="#FFFFFF"></path>
                <circle id="椭圆形" fill="url(#linearGradient-1)" cx="91" cy="90" r="19"></circle>
                <circle id="椭圆形" fill="#333333" cx="91.5" cy="90.5" r="10.5"></circle>
                <circle id="椭圆形备份" fill="#FFFFFF" cx="97.5" cy="83.5" r="5.5"></circle>
            </g>
        </g>
    </g>
</svg>