<?xml version="1.0" encoding="UTF-8"?>
<svg width="27px" height="33px" viewBox="0 0 27 33" version="1.1" xmlns="http://www.w3.org/2000/svg" xmlns:xlink="http://www.w3.org/1999/xlink">
    <title>Shape</title>
    <defs>
        <linearGradient x1="85.3979647%" y1="-12.8664505%" x2="50%" y2="100%" id="linearGradient-1">
            <stop stop-color="#5EDD9C" offset="0%"></stop>
            <stop stop-color="#2AA55C" offset="100%"></stop>
        </linearGradient>
    </defs>
    <g id="é¡µé¢-1" stroke="none" stroke-width="1" fill="none" fill-rule="evenodd">
        <g id="024-Send" transform="translate(-645.000000, -327.000000)" fill="url(#linearGradient-1)">
            <g id="Stacked-Group" transform="translate(0.000000, 187.000000)">
                <g id="Group-5" transform="translate(40.000000, 137.000000)">
                    <g id="icon/mini/2" transform="translate(605.000000, 3.000000)">
                        <g id="tongxunlu">
                            <g id="icon/mini/book">
                                <g transform="translate(0.000000, 0.000000)" id="Shape">
                                    <path d="M4.07855755,25.58 L25.8985576,25.58 C25.9685576,25.58 26.0385576,25.57 26.0985576,25.56 C26.0985576,25.56 26.1085576,25.56 26.1085576,25.56 C26.5785576,25.56 26.9585576,25.18 26.9585576,24.71 L26.9585576,0.85 C26.9585576,0.38 26.5785576,4.58300065e-13 26.1085576,4.58300065e-13 L25.9085576,4.58300065e-13 L5.42855755,4.58300065e-13 L4.07855755,4.58300065e-13 C1.83855755,4.58300065e-13 0.00855755077,1.83 0.00855755077,4.08 C0.00855755077,4.11 0.00855755077,4.14 0.0185575508,4.17 C0.00855755077,6.24 -0.0114424492,25.31 0.00855755077,27.82 C0.00855755077,27.87 0.00855755077,27.92 0.00855755077,27.97 C0.00855755077,30.13 1.69855755,31.9 3.81855755,32.03 C3.86855755,32.04 3.90855755,32.04 3.94855755,32.04 L26.1085576,32.04 C26.5785576,32.04 26.9585576,31.66 26.9585576,31.2 L26.9585576,28.02 C26.9585576,27.55 26.5785576,27.18 26.1085576,27.18 C25.6485576,27.18 25.2685576,27.55 25.2685576,28.02 L25.2685576,30.35 L4.07855755,30.35 C2.79855755,30.35 1.74855755,29.34 1.69855755,28.06 C1.69855755,28.04 1.69855755,28.02 1.69855755,28 C1.69855755,27.96 1.69855755,27.9 1.69855755,27.83 C1.77855755,26.58 2.80855755,25.58 4.07855755,25.58 Z M4.65855755,4.08 C4.65855755,3.61 5.03855755,3.24 5.49855755,3.24 C5.96855755,3.24 6.34855755,3.61 6.34855755,4.08 L6.34855755,21.23 C6.34855755,21.7 5.96855755,22.07 5.49855755,22.07 C5.03855755,22.07 4.65855755,21.7 4.65855755,21.23 L4.65855755,4.08 Z"></path>
                                </g>
                            </g>
                        </g>
                    </g>
                </g>
            </g>
        </g>
    </g>
</svg>