<?xml version="1.0" encoding="UTF-8"?>
<svg width="49px" height="64px" viewBox="0 0 49 64" version="1.1" xmlns="http://www.w3.org/2000/svg" xmlns:xlink="http://www.w3.org/1999/xlink">
    <title>logo/switch/polkagray</title>
    <g id="页面-1" stroke="none" stroke-width="1" fill="none" fill-rule="evenodd">
        <g id="021-Change-account" transform="translate(-52.000000, -815.000000)" fill="#C4C4C4" fill-rule="nonzero">
            <g id="Stacked-Group" transform="translate(47.000000, 319.000000)">
                <g id="logo/switch/polkagray" transform="translate(5.000000, 496.000000)">
                    <g id="Polkadot_symbol_color">
                        <path d="M24.0792079,0.443564356 C10.8990099,0.443564356 0.126732673,11.1524752 0.126732673,24.3960396 C0.126732673,27.0574257 0.57029703,29.6554455 1.39405941,32.190099 C1.96435644,33.9009901 3.86534653,34.8514851 5.63960396,34.2811881 C7.35049505,33.7108911 8.3009901,31.809901 7.73069307,30.0356436 C7.03366337,28.0712871 6.71683168,25.980198 6.78019802,23.8891089 C7.03366337,14.9544554 14.2574257,7.6039604 23.1920792,7.16039604 C33.1405941,6.65346535 41.3782178,14.5742574 41.3782178,24.3960396 C41.3782178,33.5841584 34.1544554,41.1247525 25.0930693,41.6316832 C25.0930693,41.6316832 21.7346535,41.8217822 20.0871287,42.0752475 C19.2633663,42.2019802 18.629703,42.3287129 18.1861386,42.3920792 C17.9960396,42.4554455 17.8059406,42.2653465 17.8693069,42.0752475 L18.439604,39.2871287 L21.5445545,24.9663366 C21.9247525,23.1920792 20.7841584,21.4178218 19.009901,21.0376238 C17.2356436,20.6574257 15.4613861,21.7980198 15.0811881,23.5722772 C15.0811881,23.5722772 7.6039604,58.4237624 7.54059406,58.8039604 C7.16039604,60.5782178 8.3009901,62.3524752 10.0752475,62.7326733 C11.849505,63.1128713 13.6237624,61.9722772 14.0039604,60.1980198 C14.0673267,59.8178218 15.0811881,55.1920792 15.0811881,55.1920792 C15.8415842,51.6435644 18.7564356,49.0455446 22.1782178,48.6019802 C22.9386139,48.4752475 25.9168317,48.2851485 25.9168317,48.2851485 C38.2732673,47.3346535 48.0316832,37.0059406 48.0316832,24.3960396 C48.0316832,11.1524752 37.2594059,0.443564356 24.0792079,0.443564356 Z" id="Path"></path>
                        <path d="M25.790099,55.5722772 C23.6356436,55.1287129 21.4811881,56.4594059 21.0376238,58.6772277 C20.5940594,60.8316832 21.9247525,62.9861386 24.1425743,63.429703 C26.2970297,63.8732673 28.4514851,62.5425743 28.8950495,60.3247525 C29.3386139,58.1069307 28.0079208,56.0158416 25.790099,55.5722772 Z" id="Path"></path>
                    </g>
                </g>
            </g>
        </g>
    </g>
</svg>