<?xml version="1.0" encoding="UTF-8"?>
<svg width="18px" height="19px" viewBox="0 0 18 19" version="1.1" xmlns="http://www.w3.org/2000/svg" xmlns:xlink="http://www.w3.org/1999/xlink">
    <title>路径</title>
    <g id="页面-1" stroke="none" stroke-width="1" fill="none" fill-rule="evenodd">
        <g id="023-Send" transform="translate(-57.000000, -546.000000)" fill="#4BA870" fill-rule="nonzero">
            <g id="分类" transform="translate(-9.000000, 375.000000)">
                <g id="列表2行" transform="translate(66.000000, 127.000000)">
                    <g id="list/activity-list">
                        <g id="list/activity-list/icon" transform="translate(0.000000, 44.000000)">
                            <path d="M-3.21520588e-13,4.2598387 L-3.21520588e-13,16.7358769 C-3.21520588e-13,17.7102542 0.745019431,18.5 1.66413419,18.5 L13.4325843,18.5 C14.3516991,18.5 15.0966539,17.7102542 15.0966539,16.7358769 C15.0966539,15.7614995 14.3516991,14.9717537 13.4325843,14.9717537 L5.68186793,14.9717537 L16.9630967,3.01223145 C17.6132961,2.3229383 17.6132961,1.20631012 16.9630967,0.516982711 C16.3128974,-0.172344701 15.2595996,-0.17231044 14.6093679,0.516982711 L3.32813912,12.476505 L3.32813912,4.25977017 C3.32817144,3.77319821 3.1421832,3.33154216 2.8409178,3.01216293 C2.53965241,2.6927837 2.12362694,2.49503033 1.66406956,2.49564703 C0.744954796,2.49564703 -3.21520588e-13,3.28539286 -3.21520588e-13,4.25977017 L-3.21520588e-13,4.2598387 Z" id="路径"></path>
                        </g>
                    </g>
                </g>
            </g>
        </g>
    </g>
</svg>