<?xml version="1.0" encoding="UTF-8"?>
<svg width="445px" height="488px" viewBox="0 0 445 488" version="1.1" xmlns="http://www.w3.org/2000/svg" xmlns:xlink="http://www.w3.org/1999/xlink">
    <title>插画</title>
    <defs>
        <rect id="path-1" x="0" y="0" width="445" height="488"></rect>
    </defs>
    <g id="页面-1" stroke="none" stroke-width="1" fill="none" fill-rule="evenodd">
        <g id="006-Start" transform="translate(-134.000000, -321.000000)">
            <g id="插画" transform="translate(134.000000, 321.000000)">
                <mask id="mask-2" fill="white">
                    <use xlink:href="#path-1"></use>
                </mask>
                <use id="Mask" fill="#D8D8D8" opacity="0" xlink:href="#path-1"></use>
                <g mask="url(#mask-2)">
                    <g transform="translate(36.000000, 11.000000)">
                        <path d="M278,299.015627 C281.319253,314.801828 284.49843,325.651611 287.537528,331.564976 C290.576627,337.478341 297.397451,337.478341 308,331.564976 C305.949384,312.267427 303.887938,300.082836 301.815661,295.011203 C299.743384,289.93957 291.80483,291.274378 278,299.015627 Z" id="路径-13" stroke="#333333" stroke-width="2" fill="#FFFFFF" fill-rule="evenodd"></path>
                        <path d="M193.18206,271.692726 C196.496284,287.74943 199.67018,298.785224 202.70375,304.800108 C205.737319,310.814991 212.544298,310.815715 223.124686,304.802277 C221.076146,285.17427 219.017566,272.780944 216.948947,267.6223 C214.880328,262.463656 206.958032,263.820464 193.18206,271.692726 Z" id="路径-13备份" stroke="#333333" stroke-width="2" fill="#FFFFFF" fill-rule="evenodd" transform="translate(208.153373, 286.935412) rotate(-8.000000) translate(-208.153373, -286.935412) "></path>
                        <path d="M180.962708,89.5109374 C180.962708,89.5109374 175.752305,91.661943 174.240987,95.5678487 C172.729669,99.4737545 172,101.35636 172,101.35636 C172,101.35636 172.563286,107.381338 182.777925,103.936156 C192.992564,100.490973 201.806332,100.048568 204.180184,96.786209 C206.554035,93.5238505 207.271609,86.4319609 206.912822,85.3411586 C206.554035,84.2503563 198.983582,81 197.947855,81 C196.912128,81 190.101244,81.7536249 189.49985,82.1432769 C188.898455,82.5329289 180.962708,89.5109374 180.962708,89.5109374 Z" id="路径-25" stroke="none" fill="#333333" fill-rule="evenodd"></path>
                        <path d="M211.398029,181.284495 C204.931533,185.17874 202.344398,184.814495 197.6885,186.643156 C181.814409,192.877899 176.653232,203.679944 173.937892,212.053864 C169.680224,225.184216 172.438325,242.735553 182.212193,264.707878 L188.407443,275.059986 L217.126491,264.707878 C212.923815,248.467417 210.822477,237.941745 210.822477,233.130859 C210.822477,228.319974 212.668816,225.020724 216.361492,223.233108 L245.846154,214.514428 L272.671871,307 L307,300.933734 C304.978809,273.46282 302.329165,250.861862 299.051068,233.130859 C295.772972,215.399857 291.049058,198.117736 284.879325,181.284495 L281.782775,136 C239.170608,163.593499 215.709026,178.688331 211.398029,181.284495 Z" id="路径-9" stroke="#333333" stroke-width="2" fill="#333333" fill-rule="evenodd"></path>
                        <path d="M210.688997,80.960208 C238.983172,76.3405277 259.16387,77.1279284 271.231089,83.32241 C289.331918,92.6141325 297.634712,109.211562 301.390323,120.950873 C302.923083,125.741985 303.354186,134.542464 303.913142,145.121053 C304.096664,148.594305 303.989363,155.206793 303.591241,164.958519 L283.105602,161.425169 L250.83412,173.086087 L230.915482,178.990785 L196.55778,187 C189.310744,153.303662 184.506018,134.570304 182.143603,130.799927 C178.599979,125.144362 177.701729,136.543236 171.360833,146.786079 C167.133569,153.614642 156.280465,162.381311 138.801521,173.086087 L111.040082,181.818326 L105,164.958519 C126.724964,153.946067 139.95428,145.890228 144.68795,140.791003 C151.788456,133.142165 167.772288,104.650194 171.360833,100.723947 C173.873386,97.9749485 179.05485,92.1181292 192.769473,86.9309974 C196.078162,85.6795882 202.051336,83.6893251 210.688997,80.960208 Z" id="路径-8" stroke="#333333" stroke-width="2" fill="#FFAC3D" fill-rule="evenodd"></path>
                        <path d="M278.507251,181.793352 C273.393774,185.736854 268.491836,188.045924 263.801437,188.720563 C261.101836,189.108857 253.317382,189.332772 247.929505,187.708605 C238.489293,184.862866 226.870657,178.879571 220.659618,162.582168 C210.903712,136.983237 223.208034,119.591107 228.008688,114.80569 C232.809343,110.020272 238.452354,107 245.484635,107 C252.516916,107 261.687522,109.842183 270.27289,113.65623 C278.858259,117.470276 286.720358,153.964123 285.947371,164.250917 C285.432047,171.108779 282.952007,176.956258 278.507251,181.793352 Z" id="路径-11" stroke="#333333" stroke-width="2" fill="#FFFFFF" fill-rule="evenodd"></path>
                        <path d="M237.361647,110.120043 C231.262956,114.211299 223.864894,127.607291 226.576817,147.483066 C229.28874,167.358842 244.782581,178.814548 254.682843,181.794077 C264.583105,184.773605 272.11433,184.993395 279.55084,180.849384 C286.987349,176.705373 287,170.69139 287,163.157361 C287,159.585591 286.612441,147.236412 285.240385,138.522388 C283.718327,128.855696 279.503591,120.539161 277.295048,117.304368 C274.639881,113.415416 272.705918,113.40159 262.155779,110.120043 C256.393863,108.327839 250.235091,106.479094 245.914078,107.135384 C242.323263,107.680769 240.129564,108.26321 237.361647,110.120043 Z" id="路径-12" stroke="#333333" stroke-width="2" fill="#FFFFFF" fill-rule="evenodd"></path>
                        <path d="M303.999344,163.089986 C304.029763,174.011936 303.00201,181.575885 300.916087,185.781835 C297.787203,192.090759 288.320141,195.278831 285.229763,196.02311 C282.139384,196.76739 276.830894,197.78746 276.830894,196.02311 C276.830894,194.846877 279.72435,192.573785 285.511263,189.203834 C278.931084,191.553043 275.068462,192.727647 273.923397,192.727647 C272.2058,192.727647 271.047149,190.9933 273.080223,188.534174 C274.435605,186.894756 278.882469,184.830045 286.420814,182.340039 C281.164329,184.461449 276.717466,185.942382 273.080223,186.782838 C267.624358,188.043523 268.684887,183.349504 271.824786,181.441644 C273.918052,180.169737 278.300806,178.410206 284.973048,176.163051 C276.669009,178.77009 271.239622,180.07361 268.684887,180.07361 C266.69761,180.07361 265.037125,179.050293 266.649026,177.246328 C268.145381,175.571676 271.74035,174.49316 273.080223,174.051267 C274.935695,173.439329 278.466521,172.137754 283.6727,170.146542 C277.448006,171.474467 273.917181,171.802495 273.080223,171.130626 C271.824786,170.122823 273.080223,166.463075 278.580308,164.5451 C282.247031,163.266449 286.164925,162.781411 290.333989,163.089986 L303.999344,163.089986 Z" id="路径-10" stroke="#333333" stroke-width="2" fill="#FFFFFF" fill-rule="evenodd"></path>
                        <g id="编组" stroke="none" stroke-width="1" fill="none" fill-rule="evenodd" transform="translate(252.000000, 343.000000)">
                            <path d="M106.568807,57.9545455 L106.568807,73.0856838 C94.5322287,79.4266183 78.3307206,83.1102247 57.9642832,84.1365031 C37.5978458,85.1627816 19.0164792,81.4791751 2.22018349,73.0856838 L2.22018349,57.9545455 L106.568807,57.9545455 Z" id="路径-17备份-2" stroke="#333333" stroke-width="2" fill="#FFFFFF"></path>
                            <path d="M54.3944954,46.2597403 C39.7713173,46.2597403 26.5317598,47.6675588 16.9484917,49.9507357 C12.1511795,51.093677 8.2817498,52.4493517 5.64379827,53.9666411 C4.44888584,54.6539274 3.51672348,55.3662062 2.89526121,56.1139016 C2.40047422,56.709191 2.11009174,57.3180823 2.11009174,57.9545455 C2.11009174,58.5694164 2.41640441,59.1590323 2.92099885,59.7418504 C3.57281432,60.4947122 4.54839906,61.2181832 5.79027475,61.9210655 C8.55551058,63.4861457 12.5930511,64.908377 17.4914829,66.1195391 C27.3914928,68.5673666 40.7710484,70.1293836 54.3944954,70.1293836 C68.0179424,70.1293836 81.397498,68.5673666 91.2975079,66.1195391 C96.1959397,64.908377 100.23348,63.4861457 102.998716,61.9210655 C104.240592,61.2181832 105.216177,60.4947122 105.867992,59.7418504 C106.372586,59.1590323 106.678899,58.5694164 106.678899,57.9545455 C106.678899,57.3180823 106.388517,56.709191 105.89373,56.1139016 C105.272267,55.3662062 104.340105,54.6539274 103.145193,53.9666411 C100.507241,52.4493517 96.6378113,51.093677 91.8404991,49.9507357 C82.2572311,47.6675588 69.0176735,46.2597403 54.3944954,46.2597403 Z" id="椭圆形备份-2" stroke="#333333" stroke-width="2" fill="#FFFFFF"></path>
                            <path d="M119.889908,35.8766234 L119.889908,51.0077618 C107.85333,57.3486962 91.6518216,61.0323027 71.2853842,62.0585811 C50.9189467,63.0848595 32.3375802,59.401253 15.5412844,51.0077618 L15.5412844,35.8766234 L119.889908,35.8766234 Z" id="路径-17备份" stroke="#333333" stroke-width="2" fill="#FFFFFF"></path>
                            <path d="M67.7155963,24.1818182 C53.0924182,24.1818182 39.8528607,25.5896367 30.2695926,27.8728137 C25.4722804,29.0157549 21.6028507,30.3714296 18.9648992,31.8887191 C17.7699868,32.5760054 16.8378244,33.2882841 16.2163621,34.0359795 C15.7215751,34.6312689 15.4311927,35.2401602 15.4311927,35.8766234 C15.4311927,36.4914943 15.7375053,37.0811102 16.2420998,37.6639284 C16.8939152,38.4167901 17.8695,39.1402612 19.1113757,39.8431434 C21.8766115,41.4082236 25.914152,42.830455 30.8125838,44.041617 C40.7125937,46.4894445 54.0921494,48.0514615 67.7155963,48.0514615 C81.3390433,48.0514615 94.7185989,46.4894445 104.618609,44.041617 C109.517041,42.830455 113.554581,41.4082236 116.319817,39.8431434 C117.561693,39.1402612 118.537277,38.4167901 119.189093,37.6639284 C119.693687,37.0811102 120,36.4914943 120,35.8766234 C120,35.2401602 119.709618,34.6312689 119.214831,34.0359795 C118.593368,33.2882841 117.661206,32.5760054 116.466293,31.8887191 C113.828342,30.3714296 109.958912,29.0157549 105.1616,27.8728137 C95.578332,25.5896367 82.3387744,24.1818182 67.7155963,24.1818182 Z" id="椭圆形备份" stroke="#333333" stroke-width="2" fill="#FFFFFF"></path>
                            <path d="M105.458716,12.6948052 L105.458716,27.8259436 C93.4221369,34.166878 77.2206289,37.8504845 56.8541915,38.8767629 C36.4877541,39.9030413 17.9063875,36.2194349 1.11009174,27.8259436 L1.11009174,12.6948052 L105.458716,12.6948052 Z" id="路径-17" stroke="#333333" stroke-width="2" fill="#FFFFFF"></path>
                            <path d="M53.2844037,1 C38.6612256,1 25.421668,2.40781855 15.8384,4.69099548 C11.0410877,5.83393675 7.17165806,7.18961146 4.53370653,8.70690087 C3.3387941,9.39418719 2.40663174,10.106466 1.78516946,10.8541613 C1.29038248,11.4494507 1,12.058342 1,12.6948052 C1,13.3096761 1.30631267,13.8992921 1.81090711,14.4821102 C2.46272257,15.2349719 3.43830732,15.958443 4.68018301,16.6613252 C7.44541884,18.2264055 11.4829594,19.6486368 16.3813911,20.8597988 C26.2814011,23.3076263 39.6609567,24.8696434 53.2844037,24.8696434 C66.9078506,24.8696434 80.2874063,23.3076263 90.1874162,20.8597988 C95.085848,19.6486368 99.1233885,18.2264055 101.888624,16.6613252 C103.1305,15.958443 104.106085,15.2349719 104.7579,14.4821102 C105.262495,13.8992921 105.568807,13.3096761 105.568807,12.6948052 C105.568807,12.058342 105.278425,11.4494507 104.783638,10.8541613 C104.162176,10.106466 103.230013,9.39418719 102.035101,8.70690087 C99.3971493,7.18961146 95.5277196,5.83393675 90.7304074,4.69099548 C81.1471393,2.40781855 67.9075818,1 53.2844037,1 Z" id="椭圆形" stroke="#333333" stroke-width="2" fill="#FFFFFF"></path>
                        </g>
                        <g id="编组-3" stroke="none" stroke-width="1" fill="none" fill-rule="evenodd" transform="translate(121.000000, 325.000000)">
                            <path d="M118.21802,0.251495361 L117.439953,107.028168 L96.7570093,121.457245 L72.2897196,94.4769941 L74.6704147,13.4366902 C83.4361969,8.4261993 90.4992696,5.13372792 95.8596328,3.55927604 C101.219996,1.98482415 108.672792,0.882230589 118.21802,0.251495361 Z" id="路径-4" stroke="#333333" stroke-width="2" fill="#FFAC3D"></path>
                            <polyline id="路径-2" stroke="#333333" stroke-width="2" fill="#FFFFFF" points="1.11214953 19.7678571 28.8860206 0.251495361 116.655689 0.251495361 88.4411379 26.8933803 31.9965638 30.75 5.42607331 26.8933803 1.11214953 20.4579947"></polyline>
                            <rect id="矩形" stroke="#333333" stroke-width="2" fill="#FFFFFF" x="1" y="19.6696429" width="94.7570093" height="102.330357"></rect>
                        </g>
                        <path d="M307.666477,327 C303.062049,329.025776 299.800638,330.038664 297.882243,330.038664 C295.004652,330.038664 287.995991,326.863067 286.279348,328.178723 C285.134919,329.055827 285.924438,332.123683 288.647905,337.382291 C286.223726,343.052396 283.816946,346.009921 281.427564,346.254866 C277.843491,346.622284 274.760012,348.978613 272.920004,351.216238 C271.693332,352.707987 271.693332,354.69553 272.920004,357.178866 C280.055813,358.273711 285.597471,358.273711 289.544977,357.178866 C293.492484,356.084021 295.797773,355.126218 296.460846,354.305456 L299.647391,347.712933 L300.703949,347.712933 L300.703949,349.933882 L301.618421,354.061055 C308.539474,354.200361 312,353.102247 312,350.766711 C312,347.263406 312,340.001827 312,338.48351 C312,337.471298 310.724644,335.541997 308.173931,332.695608 L307.666477,327 Z" id="路径-14" stroke="none" fill="#333333" fill-rule="evenodd"></path>
                        <path d="M227.072873,298.845615 C222.353273,300.842421 219.010239,301.840719 217.04377,301.84051 C214.094067,301.840197 206.909441,298.708464 205.149917,300.005444 C203.976901,300.870097 204.786527,303.894925 207.578793,309.079927 C205.09446,314.670083 202.627677,317.585783 200.178444,317.827025 C196.504595,318.188889 193.344093,320.511768 191.45821,322.717745 C190.200954,324.188397 190.201163,326.148007 191.458835,328.596577 C198.773579,329.676813 204.454107,329.677417 208.500422,328.598388 C212.546736,327.51936 214.909694,326.575268 215.589297,325.766112 L218.855005,319.266586 L219.938039,319.266701 L219.938272,321.456437 L220.876092,325.525708 C227.970353,325.663811 231.517484,324.581505 231.517484,322.278792 C231.517484,318.824721 231.516355,311.665193 231.516196,310.168213 C231.51609,309.170227 230.208571,307.267901 227.593641,304.461236 L227.072873,298.845615 Z" id="路径-14备份" stroke="none" fill="#333333" fill-rule="evenodd" transform="translate(211.016454, 314.126411) rotate(-8.000000) translate(-211.016454, -314.126411) "></path>
                        <line x1="244.384796" y1="206.03178" x2="246.379481" y2="217.98846" id="路径-15" stroke="#333333" stroke-width="2" fill="none" transform="translate(245.382138, 212.010120) rotate(-5.000000) translate(-245.382138, -212.010120) "></line>
                        <path d="M212.372657,75.9614282 C215.464659,85.046288 214.150486,90.7660941 208.430138,93.1208463 C199.849614,96.6529747 194.183751,88.6740592 192.481345,84.5411373 C191.346408,81.785856 190.067324,80.5784343 188.644094,80.9188723 C186.80111,82.7852451 184.388006,83.9926667 181.404781,84.5411373 C178.311501,85.1098418 172.948647,82.8414275 169.707076,79.6443193 C166.465506,76.4472111 158.385948,63.0940227 161.843571,49.8908202 C164.148654,41.0886851 172.160669,35.7917451 185.879618,34 L208.430138,52.3856249 L212.372657,75.9614282 Z" id="路径-7" stroke="#333333" stroke-width="2" fill="#FFFFFF" fill-rule="evenodd"></path>
                        <path d="M174.044693,75.9266731 C173.658768,74.6624646 175.843772,76.2913936 177.838692,75.3441719 C179.347617,74.6277086 180.197953,73.9222763 180.965294,72.5502743 C181.999079,70.7018716 183.389867,73.9398225 182.897896,75.9266731 C182.405926,77.9135238 181.325856,78.5221789 179.775826,78.9103147 C178.225795,79.2984504 174.814691,78.4490282 174.044693,75.9266731 Z" id="路径-22" stroke="#333333" stroke-width="1.6" fill="none"></path>
                        <path d="M167.755261,39.2568141 C174.288783,45.7550758 182.339228,46.8970449 191.906595,42.6827213 C190.645285,48.886334 190.522793,54.3182562 191.539118,58.9784879 C193.063607,65.9688354 204.687333,79.9354091 213.07229,79.9354091 C221.457247,79.9354091 223.461807,77.6436573 240.080406,77.6436573 C251.159472,77.6436573 260.987446,79.0957715 269.564327,82 C274.94681,74.33426 277.407117,68.0275422 276.945249,63.0798467 C276.252447,55.6583033 276.15926,48.1708764 260.675516,43.5404206 C245.191771,38.9099647 231.369668,50.0363285 225.891021,50.0363285 C220.412373,50.0363285 218.485193,38.6274229 215.302195,29.1134623 C212.119197,19.5995018 205.461226,18.4963088 199.893952,17.4376134 C196.182436,16.7318165 191.69333,16.7318165 186.426636,17.4376134 C190.37429,11.0989635 190.37429,6.12902516 186.426636,2.52779827 C180.505155,-2.87404207 166.113782,0.756923258 166.113782,9.85345909 C166.113782,15.9178163 169.134965,19.6277388 175.177332,20.9832265 C169.380321,22.3053192 164.42779,25.4444879 160.319739,30.4007327 C156.211688,35.3569775 155.916305,42.3195704 159.43359,51.2885112 L163.53063,43.5404206 L167.755261,39.2568141 Z" id="路径-6" stroke="none" fill="#333333" fill-rule="evenodd"></path>
                        <path d="M262.808705,128.725056 C259.496734,126.424981 256.095374,126.424981 252.604625,128.725056 C247.368501,132.175169 245.411804,142.229413 248.413266,150.814231 C251.414728,159.399049 258.065803,161 261.052124,161 C264.038445,161 268.174375,158.112841 269,152.934556" id="路径-16" stroke="#333333" stroke-width="4" fill="none" stroke-linecap="round" stroke-linejoin="round"></path>
                        <line x1="257.013672" y1="138.5" x2="242" y2="144.960519" id="路径-18" stroke="#333333" stroke-width="4" fill="none" stroke-linecap="round" stroke-linejoin="round"></line>
                        <line x1="258.084124" y1="151.5" x2="246" y2="157.960519" id="路径-18备份" stroke="#333333" stroke-width="4" fill="none" stroke-linecap="round" stroke-linejoin="round"></line>
                        <g id="编组-4" stroke="none" stroke-width="1" fill="none" fill-rule="evenodd" transform="translate(0.000000, 163.000000)">
                            <path d="M11.7657027,59.3356063 L11.8161231,73.8984097 L18.7046774,73.922112 L18.654257,59.3593085 L11.7657027,59.3356063 Z" id="矩形" stroke="#333333" stroke-width="2" fill="#FFFFFF" transform="translate(15.235190, 66.628859) rotate(-24.000000) translate(-15.235190, -66.628859) "></path>
                            <path d="M22.8934615,52.7206833 L22.9438819,67.2834867 L29.8324363,67.307189 L29.7820159,52.7443856 L22.8934615,52.7206833 Z" id="矩形备份" stroke="#333333" stroke-width="2" fill="#FFFFFF" transform="translate(26.362949, 60.013936) rotate(-24.000000) translate(-26.362949, -60.013936) "></path>
                            <path d="M34.0195182,49.4170448 L34.0699386,63.9798482 L38.7363454,63.9959045 L38.685925,49.4331011 L34.0195182,49.4170448 Z" id="矩形备份-2" stroke="#333333" stroke-width="2" fill="#FFFFFF" transform="translate(36.377932, 56.706475) rotate(-24.000000) translate(-36.377932, -56.706475) "></path>
                            <polygon id="路径-19" stroke="#333333" stroke-width="2" fill="#FFFFFF" transform="translate(52.494654, 40.616745) rotate(-3.000000) translate(-52.494654, -40.616745) " points="99.3665507 15.1782024 1.29772822 56.7972942 4.95127284 66.0552876 103.691579 24.2796066"></polygon>
                            <ellipse id="椭圆形" stroke="#333333" stroke-width="2" fill="#FFFFFF" transform="translate(96.781430, 20.461422) rotate(-20.000000) translate(-96.781430, -20.461422) " cx="96.78143" cy="20.4614217" rx="11.7831868" ry="16.1072493"></ellipse>
                            <path d="M116.546242,7.97159153 C118.144046,11.7696455 118.942949,14.3970245 118.942949,15.8537288 C118.942949,18.0387851 112.694994,24.8909294 110.037481,26.7424045 C107.379968,28.5938795 107.879848,30.9291282 100.350952,29.7615038 C92.822056,28.5938795 92.822056,18.8807235 92.822056,16.8803123 C92.822056,15.5467047 93.5081229,13.4581878 94.8802567,10.6147614 C91.6161866,10.6147614 88.8851404,10.6147614 86.6871183,10.6147614 C83.3900851,10.6147614 81.7589556,8.99602174 81.7589556,7.97159153 C81.7589556,6.94716132 86.6479973,4.58499644 88.8273645,3.41145054 C91.0067317,2.23790463 98.9580805,0.428598309 102.471366,0.428598309 C105.984652,0.428598309 110.524321,-0.388577235 111.598519,0.428598309 C112.314651,0.973382004 113.963892,3.48771308 116.546242,7.97159153 Z" id="路径-20" stroke="#333333" stroke-width="2" fill="#FFFFFF"></path>
                        </g>
                        <g id="yanjing" stroke="none" stroke-width="1" fill="none" fill-rule="evenodd" transform="translate(155.000000, 46.000000)">
                            <polyline id="路径-21" stroke="#FFAC3D" stroke-width="2" points="35.8748016 2.64095052 32.0150833 3.43363444 28.8305969 5.81709798 13.3770447 14.8824056"></polyline>
                            <path d="M11.4529724,12.4684652 C9.96629139,10.9766151 6.70443275,10.6862748 5.05979259,11.3758087 C3.41515244,12.0653426 1.28025512,13.6899087 0.876261135,16.9850707 C0.472267151,20.2802327 1.91542448,23.610754 3.42697144,25.211792 C4.51551887,26.3647868 5.96915793,27.0832979 7.78788859,27.3673252 C10.0612125,27.3182883 11.6436198,26.953267 12.5351107,26.2722613 C14.9491043,24.4282227 14.9491043,21.8701554 14.9491043,20.7234294 C14.9491043,19.8333333 14.8649019,17.3335593 14.1265182,15.6676839 C13.429263,14.0945988 12.2341979,13.2524069 11.4529724,12.4684652 Z" id="路径-5" stroke="#FFAC3D" stroke-width="2" fill="#FFFFFF"></path>
                            <path d="M27.6844017,2.01846088 C26.0867888,0.526610799 22.8100258,0.186274753 21.0426673,0.875808672 C19.2753088,1.56534259 17.6755191,2.76977272 17.0826746,6.05155302 C16.48983,9.33333333 18.0919425,13.1102129 19.7046245,14.7258549 C20.8286379,15.8519314 22.2518718,16.5657549 23.9743261,16.8673252 C26.2068376,16.8947298 27.7548776,16.49339 28.6184461,15.663306 C30.9557118,13.4166667 30.9557118,11.5366002 30.9557118,10.3868942 C30.9557118,9.84133905 30.9557118,8.31050618 30.3224869,6.05155302 C29.84302,4.34111296 28.52392,2.80240258 27.6844017,2.01846088 Z" id="路径-5备份" stroke="#FFAC3D" stroke-width="2" fill="#FFFFFF"></path>
                            <ellipse id="椭圆形" fill="#333333" cx="23.125" cy="8.16666667" rx="2.3125" ry="2.33333333"></ellipse>
                            <ellipse id="椭圆形备份-3" fill="#333333" cx="9.25" cy="16.3333333" rx="2.3125" ry="2.33333333"></ellipse>
                        </g>
                        <path d="M190,77 C188.112135,79.250565 186.778802,80.5838983 186,81" id="路径-24" stroke="#333333" stroke-width="2" fill="none" stroke-linecap="round" stroke-linejoin="round"></path>
                        <path d="M174,66 C174.338061,68.231135 174.507092,69.4971561 174.507092,69.7980633 C174.507092,70.2494241 176.653855,69.9350499 177,68.9460663" id="路径-23" stroke="#333333" stroke-width="2" fill="none" stroke-linecap="round" stroke-linejoin="round"></path>
                    </g>
                </g>
            </g>
        </g>
    </g>
</svg>