<svg width="26" height="26" viewBox="0 0 26 26" fill="none" xmlns="http://www.w3.org/2000/svg">
  <path d="M22.5089 9.96633L22.5948 10.2245L22.8583 10.2925L25.5 10.9742V15.055L22.7985 15.738L22.5169 15.8092L22.4393 16.0891C22.2976 16.5998 22.0678 17.0925 21.8206 17.5874L21.6989 17.8312L21.8377 18.0656L23.2262 20.4097L20.354 23.2854L18.0136 21.8958L17.7788 21.7564L17.5346 21.8786C17.0593 22.1165 16.5527 22.3256 16.014 22.5054L15.7559 22.5915L15.688 22.855L15.0071 25.5H10.9307L10.2498 22.855L10.1778 22.5753L9.89952 22.4979C9.38955 22.3561 8.89754 22.1261 8.40325 21.8786L8.15901 21.7564L7.92416 21.8958L5.58381 23.2854L2.7116 20.4097L4.10005 18.0656L4.23892 17.8312L4.11718 17.5874C3.87955 17.1116 3.67073 16.6042 3.49114 16.0648L3.40518 15.8066L3.14167 15.7386L0.5 15.057V10.9714L3.17621 10.2605L3.45306 10.1869L3.52965 9.91092C3.67135 9.40019 3.90113 8.9075 4.14828 8.41261L4.27002 8.16885L4.13116 7.93441L2.7427 5.59029L5.61491 2.71464L7.95526 4.10418L8.19011 4.24362L8.43435 4.12136C8.90955 3.88347 9.41624 3.67442 9.95494 3.49464L10.213 3.40851L10.2809 3.14501L10.9618 0.5H15.0411L15.7511 3.17957L15.8245 3.45646L16.1005 3.53321C16.6104 3.67504 17.1025 3.90505 17.5968 4.1525L17.841 4.27476L18.0758 4.13532L20.4162 2.74578L23.2884 5.62143L21.8999 7.96555L21.7611 8.19998L21.8828 8.44375C22.1205 8.91957 22.3293 9.42693 22.5089 9.96633Z" stroke="#27A577"/>
  <circle cx="13" cy="13" r="5.5" stroke="#27A577"/>
</svg>

