<?xml version="1.0" encoding="UTF-8"?>
<svg width="48px" height="42px" viewBox="0 0 48 42" version="1.1" xmlns="http://www.w3.org/2000/svg" xmlns:xlink="http://www.w3.org/1999/xlink">
    <title>Group 8</title>
    <g id="页面-1" stroke="none" stroke-width="1" fill="none" fill-rule="evenodd">
        <g id="023-Send" transform="translate(-634.000000, -40.000000)" fill="#666666" fill-rule="nonzero">
            <g id="bar/sub-with-setting" transform="translate(-1.000000, 0.000000)">
                <g id="Group-8" transform="translate(635.000000, 40.000000)">
                    <path d="M37.7684245,2.80033727 C37.0325819,1.55783402 35.2264231,0.541714578 33.7547381,0.541714578 L14.8203063,0.541714578 C13.3486213,0.541714578 11.5424625,1.55783397 10.80662,2.80033727 L1.33967167,18.7828311 C0.603829162,20.0253344 0.603829162,22.0575732 1.33967167,23.3000765 L10.80662,39.2830919 C11.5424625,40.5255952 13.3486213,41.5417146 14.8203063,41.5417146 L33.7547381,41.5417146 C35.2264231,41.5417146 37.0325819,40.5255952 37.7684245,39.2830919 L47.2359079,23.3000765 C47.9717504,22.0575732 47.9717504,20.0253344 47.2359079,18.7828311 L37.7684245,2.80033727 Z M35.6058503,35.6317389 C34.8700078,36.8742422 33.0638489,37.8903616 31.5921638,37.8903616 L16.9828806,37.8903616 C15.5111956,37.8903616 13.7050367,36.8742422 12.9691942,35.6317389 L5.6653553,23.3005981 C4.92951279,22.0580948 4.92951279,20.025856 5.6653553,18.7833527 L12.9691942,6.4516903 C13.7050367,5.20918704 15.5111956,4.19306765 16.9828806,4.19306765 L31.5921638,4.19306765 C33.0638489,4.19306765 34.8700077,5.20918704 35.6058503,6.4516903 L42.9107595,18.7828311 C43.646602,20.0253344 43.646602,22.0575732 42.9107595,23.3000765 L35.6058503,35.6317389 Z" id="Shape"></path>
                    <path d="M24.7877898,13.5417146 C20.3693935,13.5417146 16.7877898,16.8994682 16.7877898,21.0417146 C16.7877898,25.183961 20.3693936,28.5417146 24.7877898,28.5417146 C29.2061859,28.5417146 32.7877898,25.183961 32.7877898,21.0417146 C32.7877898,16.8994681 29.206186,13.5417146 24.7877898,13.5417146 Z M24.7877898,24.9212567 C22.5057791,24.9212567 20.6490599,23.1805824 20.6490599,21.0411974 C20.6490599,18.9018124 22.5057791,17.1611381 24.7877898,17.1611381 C27.0698004,17.1611381 28.9265197,18.9018125 28.9265197,21.0411974 C28.9265197,23.1805824 27.0698004,24.9212567 24.7877898,24.9212567 Z" id="Shape"></path>
                </g>
            </g>
        </g>
    </g>
</svg>