<?xml version="1.0" encoding="UTF-8"?>
<svg width="526px" height="333px" viewBox="0 0 526 333" version="1.1" xmlns="http://www.w3.org/2000/svg" xmlns:xlink="http://www.w3.org/1999/xlink">
    <title>Group 2</title>
    <defs>
        <linearGradient x1="91.5461718%" y1="29.9604953%" x2="-4.39399342%" y2="73.8561891%" id="linearGradient-1">
            <stop stop-color="#FBA100" offset="0%"></stop>
            <stop stop-color="#F55B02" offset="100%"></stop>
        </linearGradient>
        <rect id="path-2" x="0" y="0" width="526" height="333" rx="40"></rect>
    </defs>
    <g id="页面-1" stroke="none" stroke-width="1" fill="none" fill-rule="evenodd">
        <g id="017-Asset-page" transform="translate(-146.000000, -229.000000)">
            <g id="Group-2" transform="translate(146.000000, 229.000000)">
                <g id="scan扫描">
                    <mask id="mask-3" fill="white">
                        <use xlink:href="#path-2"></use>
                    </mask>
                    <use id="Mask" fill="url(#linearGradient-1)" xlink:href="#path-2"></use>
                    <path d="M537,0 C595.211022,0 644.288429,39.2956841 659.169515,92.8099528 C712.046551,107.485796 751.052953,155.58534 751.983006,212.903943 L752,214.999839 C752,273.203831 712.714937,322.275247 659.211972,337.163464 C644.287022,391.109426 594.675086,430 537,430 C478.789067,430 429.711601,390.704167 414.830492,337.189972 C361.310321,322.335671 322,273.239429 322,215 L398.845354,215 C398.845354,231.612855 406.979656,246.346471 419.478071,255.430405 C432.263231,223.951774 457.311431,198.762432 488.681527,185.806197 C479.693693,173.580973 465.19976,165.636821 448.86935,165.636821 C421.616058,165.636821 398.845354,187.762564 398.845354,215 L322,214.999839 C322,156.78278 361.303762,107.701414 414.826454,92.8258804 C429.612507,39.7228369 478.196363,0 537,0 Z M505.536529,260 L504.924707,260.452751 C492.823243,269.658535 485,284.230032 485,300.613465 C485,328.415655 507.528641,351 535.262203,351 C552.253111,351 566.856443,342.435602 576,330.423012 C544.152184,317.329885 518.670913,291.8615 505.536529,260 Z M652.119108,176 L651.887894,176.564136 C638.64601,208.066169 613.434278,233.240253 582,246.301101 C591.168737,258.847154 605.954472,267 622.613657,267 C650.413861,267 672.996945,244.296246 673,216.345877 C673,199.803732 664.436691,185.115223 652.119108,176 Z M498,100.206493 C529.818245,113.243118 555.258924,138.468886 568.393706,170 C580.883695,160.895919 589,146.214184 589,129.672175 C589,102.065751 566.394947,79 538.56721,79 C522.213548,79 507.18198,87.2220485 498,100.206493 Z" id="形状" fill-opacity="0.38" fill="#F77003" mask="url(#mask-3)"></path>
                </g>
            </g>
        </g>
    </g>
</svg>