<?xml version="1.0" encoding="UTF-8"?>
<svg width="76px" height="76px" viewBox="0 0 76 76" version="1.1" xmlns="http://www.w3.org/2000/svg" xmlns:xlink="http://www.w3.org/1999/xlink">
    <title>位图</title>
    <defs>
        <circle id="path-1" cx="38" cy="38" r="38"></circle>
    </defs>
    <g id="页面-1" stroke="none" stroke-width="1" fill="none" fill-rule="evenodd">
        <g id="016-Asset-page" transform="translate(-42.000000, -1058.000000)">
            <g id="Stacked-Group" transform="translate(40.000000, 667.000000)">
                <g id="list/home" transform="translate(2.000000, 391.000000)">
                    <g id="首页列表">
                        <g id="icon/circle/cor/2">
                            <g>
                                <g id="位图">
                                    <mask id="mask-2" fill="white">
                                        <use xlink:href="#path-1"></use>
                                    </mask>
                                    <use id="蒙版" fill="#22A079" xlink:href="#path-1"></use>
                                    <path d="M41.9060086,43.6048449 C41.6613734,43.6234622 40.3974249,43.7 37.5780043,43.7 C35.335515,43.7 33.7433476,43.6317365 33.1847639,43.6048449 C24.5185622,43.2180185 18.05,41.6872618 18.05,39.854491 C18.05,38.0217202 24.5185622,36.4930321 33.1847639,36.1 L33.1847639,42.080294 C33.7515021,42.1216658 35.3742489,42.2188895 37.6167382,42.2188895 C40.3077253,42.2188895 41.6552575,42.105117 41.8978541,42.0823625 L41.8978541,36.1041372 C50.5457082,36.4951007 57,38.0258574 57,39.854491 C57,41.6831247 50.5477468,43.2138813 41.8978541,43.6027763 L41.9060086,43.6048449 Z M42.4457337,29.9415797 L54.6955561,29.9415797 L54.6955561,21.85 L21.3437592,21.85 L21.3437592,29.9415797 L33.5915124,29.9415797 L33.5915124,35.2457179 C23.6364624,35.6990104 16.15,37.6537064 16.15,39.9960597 C16.15,42.3384131 23.6364624,44.2910579 33.5915124,44.7464016 L33.5915124,61.75 L42.4436645,61.75 L42.4436645,44.7402483 C52.3759529,44.2869557 59.85,42.3343109 59.85,39.9940086 C59.85,37.6537064 52.3821606,35.7010615 42.4436645,35.2457179 L42.4457337,29.9415797 Z" id="Shape" fill="#FFFFFF" mask="url(#mask-2)"></path>
                                </g>
                            </g>
                        </g>
                    </g>
                </g>
            </g>
        </g>
    </g>
</svg>