<svg width="24" height="22" viewBox="0 0 24 22" fill="none" xmlns="http://www.w3.org/2000/svg">
<path d="M10.2442 3.21895C11.0022 1.82922 12.9978 1.82922 13.7558 3.21895L22.3867 19.0423C23.1137 20.375 22.149 22 20.6309 22H3.36908C1.85097 22 0.886339 20.375 1.61329 19.0423L10.2442 3.21895Z" fill="#FF8A8A"/>
<path d="M12.3721 16.1904H11.2305L11.1416 9.04688H12.4678L12.3721 16.1904ZM11.0938 18.3643C11.0938 18.1592 11.1553 17.9883 11.2783 17.8516C11.4059 17.7103 11.5928 17.6396 11.8389 17.6396C12.085 17.6396 12.2718 17.7103 12.3994 17.8516C12.527 17.9883 12.5908 18.1592 12.5908 18.3643C12.5908 18.5693 12.527 18.7402 12.3994 18.877C12.2718 19.0091 12.085 19.0752 11.8389 19.0752C11.5928 19.0752 11.4059 19.0091 11.2783 18.877C11.1553 18.7402 11.0938 18.5693 11.0938 18.3643Z" fill="white"/>
</svg>
