<svg width="24" height="24" viewBox="0 0 24 24" fill="none" xmlns="http://www.w3.org/2000/svg">
<g opacity="0.5">
<circle cx="12" cy="12" r="12" fill="#E3453D"/>
<path d="M16.051 12.7157C15.758 12.195 15.2893 12.195 14.9964 12.7157L13.1466 15.985C12.8537 16.4972 13.0964 16.924 13.6739 16.924H17.3399C17.9258 16.924 18.1685 16.4972 17.8756 15.985L16.051 12.7157Z" fill="white"/>
<path d="M13.9084 8.866L12.9458 7.13317L12.5357 6.39053C12.2428 5.86982 11.774 5.86982 11.4811 6.39053L6.12441 15.9766C5.83147 16.4973 6.07419 16.9155 6.66008 16.9155H8.1499H9.17102H9.34679C9.83225 16.9155 10.4349 16.5656 10.6776 16.1302L13.9084 10.4281C14.1427 10.0098 14.1427 9.30134 13.9084 8.866Z" fill="white"/>
</g>
</svg>
