<svg width="24" height="24" viewBox="0 0 24 24" fill="none" xmlns="http://www.w3.org/2000/svg">
<circle cx="12" cy="12" r="11.5" fill="white" stroke="#ECEFF2"/>
<path d="M8.89279 10.7233L12 7.61625L15.1089 10.725L16.9169 8.91699L12 4L7.08479 8.91535L8.89279 10.7233Z" fill="#F3BA2F"/>
<path d="M7.61643 11.9998L5.80847 10.1918L4.00042 11.9999L5.80838 13.8079L7.61643 11.9998Z" fill="#F3BA2F"/>
<path d="M8.89314 13.2768L12.0004 16.3839L15.1091 13.2753L16.9181 15.0822L16.9172 15.0833L12.0004 20.0001L7.08502 15.0849L7.08249 15.0824L8.89314 13.2768Z" fill="#F3BA2F"/>
<path d="M18.192 13.8086L20 12.0006L18.1921 10.1926L16.384 12.0007L18.192 13.8086Z" fill="#F3BA2F"/>
<path d="M13.8335 11.999H13.8343L11.9996 10.1644L10.6438 11.5202H10.6437L10.488 11.676L10.1666 11.9974L10.1641 11.9999L10.1666 12.0026L11.9996 13.8356L13.8343 12.0009L13.8352 11.9999L13.8335 11.999Z" fill="#F3BA2F"/>
</svg>
