<svg width="24" height="24" viewBox="0 0 24 24" fill="none" xmlns="http://www.w3.org/2000/svg">
<g opacity="0.5">
<circle cx="12" cy="12" r="11.5" fill="white" stroke="#ECEFF2"/>
<path d="M13.0869 8.89356L10.7598 6.56465C10.7146 6.51942 10.6412 6.51942 10.5904 6.56465L9.66969 7.48604C9.62451 7.53126 9.62451 7.60475 9.66969 7.65562L11.9686 9.96193C12.5334 10.5272 12.5447 11.4599 11.9742 12.0139C11.4207 12.5509 10.5282 12.5452 9.98035 11.9969L6.62524 8.63919C6.07735 8.09088 6.0717 7.19775 6.60829 6.64378C7.16183 6.07286 8.09945 6.08417 8.65864 6.64944L8.99189 6.98295C9.03708 7.02817 9.11051 7.02817 9.16134 6.98295L10.082 6.06155C10.1272 6.01633 10.1272 5.94285 10.082 5.89197L9.72618 5.53585C8.56827 4.37705 6.69302 4.37705 5.53511 5.53585C4.37719 6.69466 4.37719 8.57136 5.53511 9.73017L8.89022 13.0879C10.0481 14.2467 11.9234 14.2467 13.0813 13.0879C14.2449 11.9291 14.2449 10.0524 13.0869 8.89356Z" fill="#EA754B"/>
<path d="M18.4631 5.53549C17.3052 4.37668 15.43 4.37668 14.2721 5.53549L12.0014 7.80788L13.0859 8.8932L13.0915 8.89885L15.3622 6.62646C15.9157 6.07249 16.8195 6.07249 17.373 6.62646C17.9265 7.18043 17.9265 8.08486 17.373 8.63883L17.0172 8.99495C16.972 9.04017 16.972 9.11365 17.0172 9.16453L17.9378 10.0859C17.983 10.1311 18.0564 10.1311 18.1073 10.0859L18.4631 9.7298C19.6154 8.57099 19.6154 6.69429 18.4631 5.53549Z" fill="#34C69A"/>
<path d="M16.5087 9.66776C16.4635 9.62253 16.3901 9.62253 16.3392 9.66776L14.0121 11.9967C13.9104 12.0984 13.7918 12.1832 13.6676 12.251C13.131 12.5337 12.4532 12.4489 12.0013 11.9967L11.9956 11.991C11.4478 11.4371 11.4478 10.5439 11.9956 9.98996L10.9055 8.89899C10.0018 9.80907 9.80974 11.1544 10.3237 12.251C10.4649 12.5563 10.6626 12.8389 10.9112 13.0876C11.2275 13.4042 11.6003 13.636 11.9956 13.7773C12.3233 13.896 12.6622 13.9525 13.0067 13.9525C13.7636 13.9525 14.5261 13.6642 15.1022 13.082L17.4294 10.7531C17.4745 10.7079 17.4745 10.6344 17.4294 10.5835L16.5087 9.66776Z" fill="#34C69A"/>
<path d="M18.4638 14.2743L16.1932 12.002L15.1031 13.0929L17.3737 15.3653C17.9216 15.9136 17.9272 16.8068 17.3906 17.3607C16.8371 17.9317 15.8995 17.9203 15.3403 17.3551L15.007 17.0216C14.9618 16.9763 14.8884 16.9763 14.8376 17.0216L13.9169 17.943C13.8717 17.9882 13.8717 18.0617 13.9169 18.1125L14.2389 18.4347C15.4024 19.5992 17.3285 19.6275 18.4808 18.4574C19.0512 17.8808 19.3337 17.129 19.3337 16.3772C19.328 15.614 19.04 14.8509 18.4638 14.2743Z" fill="#F6C94A"/>
<path d="M14.3351 16.5186C14.3803 16.4734 14.3803 16.3999 14.3351 16.3491L12.008 14.0201C11.9063 13.9184 11.8159 13.7997 11.7538 13.6753C11.4714 13.1383 11.5561 12.46 12.008 12.0078L12.0136 12.0021C12.5672 11.4538 13.4596 11.4538 14.0131 12.0021L15.1033 10.9112C14.1939 10.0067 12.8496 9.81453 11.7538 10.3289C11.4488 10.4702 11.1664 10.6681 10.9178 10.9168C10.6015 11.2334 10.37 11.6064 10.2287 12.0021C10.1101 12.33 10.0536 12.6692 10.0536 13.014C10.0536 13.7714 10.3417 14.5345 10.9235 15.1111L13.2506 17.44C13.2958 17.4853 13.3692 17.4853 13.4201 17.44L14.3351 16.5186Z" fill="#F6C94A"/>
<path d="M13.7808 12.0079C13.7525 11.9174 13.713 11.8327 13.6735 11.7479C13.5323 11.4426 13.3346 11.16 13.086 10.9113C12.8375 10.6625 12.5551 10.4647 12.2557 10.3234C12.171 10.2838 12.0919 10.2499 12.0072 10.2216C10.9623 9.8429 9.74787 10.069 8.90627 10.9056L9.9964 11.9966C10.0981 11.8948 10.2167 11.81 10.3353 11.7479C10.8719 11.4652 11.5497 11.55 12.0016 12.0022L12.0072 12.0079C12.4534 12.4601 12.5382 13.1441 12.2501 13.6811C12.188 13.7998 12.1089 13.9129 12.0072 14.009L13.0973 15.0999C13.922 14.2633 14.1536 13.0536 13.7808 12.0079Z" fill="#46AEE2"/>
<path d="M7.65837 14.331L8.90101 13.0874L7.81087 11.9965L6.56824 13.2401C6.52305 13.2853 6.52305 13.3588 6.56824 13.4096L7.48892 14.331C7.53411 14.3763 7.61318 14.3763 7.65837 14.331Z" fill="#46AEE2"/>
<path d="M8.64667 17.3723C8.09313 17.9262 7.18939 17.9262 6.63586 17.3723C6.08232 16.8183 6.08232 15.9139 6.63586 15.3599L6.9917 15.0038C7.03689 14.9586 7.03689 14.8851 6.9917 14.8342L6.07102 13.9128C6.02583 13.8676 5.95241 13.8676 5.90157 13.9128L5.54573 14.2689C4.38781 15.4277 4.38781 17.3045 5.54573 18.4633C6.1275 19.0398 6.88438 19.3338 7.64126 19.3338C8.39814 19.3338 9.16067 19.0455 9.7368 18.4633L12.0074 16.1909L10.9173 15.0999L8.64667 17.3723Z" fill="#46AEE2"/>
</g>
</svg>
