<svg width="24" height="24" viewBox="0 0 24 24" fill="none" xmlns="http://www.w3.org/2000/svg">
<circle cx="12" cy="12" r="12" fill="#7CCB3C"/>
<path fill-rule="evenodd" clip-rule="evenodd" d="M12 15C12 16.6569 10.6569 18 9 18C7.34315 18 6 16.6569 6 15C6 13.3484 7.33474 12.0084 8.98444 12.0001C7.33479 11.9916 6.00011 10.6517 6.00011 9.00008C6.00011 7.34321 7.34326 6.00008 9.00011 6.00008C10.6507 6.00008 11.9899 7.33299 12.0001 8.98112C12.0102 7.33293 13.3495 6 15 6C16.6569 6 18 7.34312 18 9C18 10.6565 16.6575 11.9994 15.0011 12C16.6575 12.0006 18 13.3435 18 15C18 16.6569 16.6569 18 15 18C13.3431 18 12 16.6569 12 15ZM15 11.991C13.3451 11.991 12.0024 10.6537 11.9922 9C11.982 10.6485 10.6477 11.9827 9 11.9911C10.6536 11.9995 11.9916 13.3433 11.9921 15C11.9927 13.3381 13.3392 11.991 15 11.991Z" fill="white"/>
</svg>
