<svg width="24" height="24" viewBox="0 0 24 24" fill="none" xmlns="http://www.w3.org/2000/svg">
<path d="M12 0.5C18.3503 0.5 23.5 5.64974 23.5 12C23.5 18.3503 18.3503 23.5 12 23.5C5.64974 23.5 0.5 18.3503 0.5 12C0.5 5.64974 5.64974 0.5 12 0.5Z" fill="white" stroke="#ECEFF2"/>
<path d="M8 7.33333L12.3333 5L16 7.33333M8 7.33333L12 9.66667M8 7.33333V12M16 7.33333L12 9.66667M16 7.33333V12M12 9.66667L8 12M12 9.66667L16 12M12 9.66667V14.3333M8 12L12 14.3333M8 12V16.3333L12.3333 19L16 17V12M12 14.3333L16 12" stroke="black"/>
</svg>
