<svg width="24" height="24" viewBox="0 0 24 24" fill="none" xmlns="http://www.w3.org/2000/svg">
<g opacity="0.5">
<circle cx="12" cy="12" r="11.5" fill="white" stroke="#ECEFF2"/>
<path d="M18.4761 7.79647C18.2554 7.62813 17.9923 7.3982 17.5127 7.34072C17.0629 7.28323 16.6046 7.57475 16.2948 7.76773C15.985 7.9607 15.3993 8.52731 15.1574 8.69976C14.9155 8.87221 14.2959 9.03234 13.2986 9.61127C12.3013 10.1902 8.38851 12.6209 8.38851 12.6209L9.40703 12.6332L4.86613 14.8955H5.32022L4.66667 15.3759C4.66667 15.3759 5.24383 15.5237 5.72763 15.2281V15.3636C5.72763 15.3636 11.1343 13.3024 12.1782 13.8362L11.5417 14.0169C11.5968 14.0169 12.6238 14.0826 12.6238 14.0826C12.6238 14.0826 12.6578 14.7026 13.2774 15.1008C13.897 15.495 13.9097 15.7126 13.9097 15.7126C13.9097 15.7126 13.5872 15.8399 13.5872 16C13.5872 16 14.0625 15.8604 14.5039 15.8727C14.9452 15.885 15.3314 16 15.3314 16C15.3314 16 15.2975 15.8276 14.8688 15.7126C14.436 15.5935 14.0158 15.146 13.8079 14.8996C13.5999 14.6533 13.4556 14.214 13.6339 13.7746C13.7824 13.401 14.3002 13.1957 15.3696 12.6619C16.63 12.0296 16.9186 11.5616 17.0968 11.1961C17.2751 10.8307 17.5382 10.104 17.6867 9.76318C17.8735 9.32385 18.1026 9.08982 18.2936 8.95022C18.4803 8.81062 19.3333 8.50268 19.3333 8.50268C19.3333 8.50268 18.684 7.9566 18.4761 7.79647Z" fill="black"/>
</g>
</svg>
