<svg width="24" height="24" viewBox="0 0 24 24" fill="none" xmlns="http://www.w3.org/2000/svg">
<g opacity="0.5">
<path d="M16.8523 0.962401C16.5103 1.01373 16.1804 0.877445 15.9695 0.627284C16.2692 0.727788 16.5636 0.839666 16.8523 0.962401Z" fill="url(#paint0_linear)"/>
<path d="M15.7025 0.541208C15.6367 0.97133 15.3095 1.33268 14.8616 1.41767C14.2937 1.52544 13.7468 1.14814 13.64 0.574957C13.6095 0.411058 13.6182 0.248889 13.6596 0.0983425C14.3611 0.187879 15.0439 0.337267 15.7025 0.541208Z" fill="url(#paint1_linear)"/>
<path d="M13.3919 0.0671831C13.5083 0.209657 13.5917 0.382954 13.6279 0.577262C13.7423 1.19139 13.3418 1.78284 12.7333 1.89831C12.1249 2.01377 11.5389 1.60953 11.4245 0.9954C11.3553 0.623945 11.4745 0.260785 11.7141 0.00622969C11.8445 0.00208702 11.9754 0 12.1068 0C12.5409 0 12.9696 0.0227722 13.3919 0.0671831Z" fill="url(#paint2_linear)"/>
<path fill-rule="evenodd" clip-rule="evenodd" d="M10.6611 0.0851534C11.0432 0.227002 11.3438 0.562263 11.4245 0.9954C11.5166 1.49021 11.2954 1.97122 10.902 2.23004C11.3658 2.29522 11.7576 2.6517 11.8489 3.14191C11.9633 3.75604 11.5628 4.34749 10.9544 4.46295C10.3459 4.57842 9.75993 4.17417 9.64553 3.56005C9.56089 3.10566 9.75812 2.66369 10.1129 2.41774C9.74646 2.3754 9.41916 2.16282 9.22827 1.84712C9.18166 2.15037 9.02808 2.42543 8.80096 2.62293C9.22115 2.74527 9.55921 3.09664 9.64553 3.56005C9.73656 4.04874 9.52192 4.52398 9.13754 4.78499C9.64648 4.80707 10.092 5.17953 10.1901 5.70655C10.3045 6.32068 9.90402 6.91213 9.29557 7.0276C8.68712 7.14307 8.10113 6.73882 7.98673 6.12469C7.90295 5.67489 8.09538 5.23725 8.44342 4.98988C8.03341 4.98097 7.65905 4.7586 7.44933 4.41177C7.40452 4.70329 7.26086 4.96876 7.04804 5.16431C7.51119 5.25875 7.89405 5.62715 7.98673 6.12469C8.07771 6.61307 7.8634 7.088 7.4795 7.34913C7.9942 7.36495 8.44693 7.73938 8.54599 8.2712C8.63332 8.73998 8.42062 9.19555 8.04443 9.43629C8.49564 9.48075 8.88253 9.82007 8.97051 10.2924C9.07728 10.8656 8.70348 11.4176 8.13559 11.5254C7.5677 11.6332 7.02078 11.2559 6.91401 10.6827C6.83413 10.2539 7.02324 9.83687 7.36137 9.60891C6.86663 9.5722 6.43859 9.20466 6.3426 8.68934C6.25884 8.23967 6.45113 7.80216 6.79897 7.55475C6.38336 7.55078 6.0027 7.32729 5.79054 6.97641C5.74591 7.26675 5.60323 7.53124 5.39184 7.72656C5.86039 7.81702 6.24911 8.18748 6.3426 8.68934C6.4197 9.10326 6.27751 9.50754 5.99863 9.78016C6.4432 9.86094 6.81343 10.2103 6.90186 10.685C7.01626 11.2991 6.61575 11.8906 6.0073 12.006C5.39885 12.1215 4.81286 11.7172 4.69846 11.1031C4.62863 10.7282 4.75067 10.3618 4.99476 10.1069C4.64307 10.0551 4.33097 9.84631 4.1464 9.54106C4.11051 9.77457 4.01119 9.99137 3.86371 10.1689C4.27934 10.2938 4.61281 10.6433 4.69846 11.1031C4.79777 11.6362 4.53332 12.1533 4.08161 12.3938C4.58402 12.4227 5.02143 12.7929 5.11859 13.3145C5.23299 13.9287 4.83248 14.5201 4.22403 14.6356C3.61558 14.751 3.02959 14.3468 2.9152 13.7327C2.8234 13.2399 3.06313 12.7617 3.47579 12.5323C3.07385 12.5166 2.70847 12.2959 2.50227 11.9548C2.45159 12.2846 2.27446 12.5809 2.01385 12.7805C2.46012 12.8867 2.82502 13.2486 2.9152 13.7327C3.01814 14.2853 2.7302 14.8207 2.24797 15.0486C2.82218 14.9885 3.35555 15.3823 3.46412 15.9651C3.55145 16.4339 3.33875 16.8895 2.96256 17.1302C3.41376 17.1747 3.80065 17.514 3.88864 17.9864C3.99541 18.5595 3.6216 19.1116 3.05372 19.2193C2.73305 19.2802 2.41907 19.1864 2.18725 18.99C2.0762 18.8321 1.96885 18.6715 1.86532 18.5082C1.85167 18.4656 1.84054 18.4217 1.83214 18.3766C1.75226 17.9478 1.94137 17.5308 2.27949 17.3029C1.78476 17.2661 1.35672 16.8986 1.26073 16.3833C1.16501 15.8694 1.42977 15.3714 1.87521 15.1549C1.40363 15.2095 0.956097 14.9765 0.719 14.5844C0.681794 14.8264 0.576441 15.0505 0.419936 15.2316C0.246197 14.592 0.123875 13.9314 0.0576648 13.2544C0.265712 13.3657 0.442016 13.5345 0.562491 13.7442C0.613369 13.4559 0.767192 13.1965 0.990955 13.0147C0.669321 12.9479 0.384479 12.7567 0.198888 12.4843C0.167654 12.6394 0.109847 12.7866 0.0296124 12.9197C0.00998027 12.6386 0 12.3549 0 12.0689C0 11.8568 0.00549074 11.6459 0.0163388 11.4365C0.0464073 11.3197 0.0925729 11.2084 0.152751 11.1057C0.114895 11.0947 0.077631 11.082 0.041058 11.0678C0.120573 10.1025 0.314045 9.16935 0.608037 8.2818C0.608915 8.2818 0.609793 8.28179 0.61067 8.28179L0.697187 8.03224C0.69647 8.03105 0.695757 8.02986 0.695044 8.02867C0.999734 7.17349 1.39841 6.36269 1.8787 5.60862C1.88117 5.60803 1.88364 5.60744 1.88611 5.60687L2.23292 5.08704C2.23265 5.0862 2.23237 5.08537 2.2321 5.08453C2.7595 4.34489 3.36842 3.66705 4.04581 3.06403L4.25496 2.88283L4.25458 2.8824C4.99471 2.25311 5.81183 1.71114 6.6899 1.27249C6.70638 1.2975 6.72221 1.32297 6.73734 1.34886C6.74684 1.30934 6.75817 1.27042 6.77127 1.23222C7.34819 0.94941 7.95098 0.711033 8.57515 0.521569C8.77962 0.632936 8.95288 0.800043 9.07176 1.00692C9.12226 0.720785 9.27415 0.463103 9.49518 0.281522C9.87738 0.197752 10.2663 0.131983 10.6611 0.0851534ZM2.59418 5.62587L2.57642 5.6272C2.58673 5.63034 2.59698 5.6336 2.60715 5.63699C2.60281 5.63331 2.59848 5.6296 2.59418 5.62587ZM0.921276 8.3065L0.923859 8.3132L0.929972 8.31453C0.927061 8.31186 0.924164 8.30919 0.921276 8.3065ZM3.05903 5.90053C3.17904 6.00651 3.28228 6.13292 3.36806 6.27182C3.40689 6.18119 3.45591 6.09547 3.51393 6.01638C3.36314 5.99627 3.20797 5.95837 3.05903 5.90053ZM3.63681 7.68711C3.59506 7.86809 3.51877 8.03156 3.4087 8.17344C3.64992 8.28242 3.85493 8.46601 3.98989 8.70086C4.03413 8.45019 4.15618 8.22136 4.33436 8.0464C4.06829 8.00351 3.82441 7.87591 3.63681 7.68711ZM1.7814 8.7191C1.70911 8.70607 1.63718 8.68881 1.56645 8.66735C1.62148 8.72378 1.67187 8.78546 1.71749 8.85176C1.73629 8.80627 1.75764 8.76198 1.7814 8.7191ZM5.98063 5.47967C5.80129 5.65489 5.67844 5.88455 5.63403 6.13621C5.46273 5.83813 5.17856 5.62262 4.85077 5.53744C4.99369 5.36219 5.0927 5.15169 5.135 4.92484C5.32822 5.21813 5.63516 5.42037 5.98063 5.47967ZM6.61475 3.00511C6.76944 2.82798 6.87761 2.61138 6.9249 2.37654C7.09973 2.63322 7.36263 2.81775 7.6614 2.89409C7.47012 3.07176 7.33902 3.30975 7.29282 3.57157C7.14013 3.30587 6.89776 3.10577 6.61475 3.00511ZM2.34576 11.1146C2.21742 10.8913 2.02573 10.7143 1.79981 10.6038C1.8845 10.4961 1.94529 10.3751 1.9829 10.2418C2.14524 10.4088 2.35108 10.5293 2.57762 10.5875C2.46056 10.7404 2.37993 10.921 2.34576 11.1146Z" fill="url(#paint3_linear)"/>
<path d="M1.83151 18.4545C1.82852 18.4294 1.82469 18.4042 1.81999 18.3789C1.76549 18.0864 1.60398 17.8414 1.38399 17.6776C1.52373 17.9426 1.67305 18.2017 1.83151 18.4545Z" fill="url(#paint4_linear)"/>
<path d="M1.13679 17.1815C1.2634 16.9462 1.31358 16.667 1.26073 16.3833C1.17932 15.9463 0.874063 15.6089 0.487166 15.4693C0.660862 16.0601 0.87867 16.6321 1.13679 17.1815Z" fill="url(#paint5_linear)"/>
<path d="M3.89378 20.9362C3.42289 20.5025 2.98662 20.0321 2.58956 19.5294C2.69038 19.4651 2.80472 19.4185 2.92908 19.3949C3.4564 19.2949 3.96426 19.6452 4.0634 20.1775C4.11492 20.4541 4.04594 20.7253 3.89378 20.9362Z" fill="url(#paint6_linear)"/>
<path d="M6.33052 22.6782C5.8534 22.4195 5.39568 22.1298 4.96009 21.8117C5.06075 21.5563 5.28494 21.3568 5.57244 21.3022C6.01863 21.2176 6.44836 21.514 6.53225 21.9644C6.58195 22.2312 6.4991 22.4922 6.33052 22.6782Z" fill="url(#paint7_linear)"/>
<path d="M9.08664 23.7593C8.61564 23.6387 8.15572 23.4906 7.7087 23.3168C7.81574 23.1462 7.98994 23.0192 8.20204 22.979C8.60767 22.902 8.99833 23.1715 9.07459 23.5809C9.08579 23.641 9.08959 23.7008 9.08664 23.7593Z" fill="url(#paint8_linear)"/>
<path d="M21.9622 5.05745C22.2228 5.4209 22.4637 5.79936 22.6834 6.19129C22.598 6.26344 22.4936 6.31514 22.3764 6.33739C22.0113 6.40667 21.6597 6.16412 21.5911 5.79564C21.5335 5.48641 21.6935 5.18676 21.9622 5.05745Z" fill="url(#paint9_linear)"/>
<path d="M19.5028 2.51309C19.4479 2.53701 19.3895 2.55521 19.3283 2.56684C18.8821 2.65151 18.4523 2.35507 18.3684 1.90471C18.3574 1.8456 18.3529 1.78679 18.3544 1.72901C18.7528 1.96871 19.1361 2.23065 19.5028 2.51309Z" fill="url(#paint10_linear)"/>
<path d="M17.2121 3.04517C17.6989 2.9528 18.0193 2.47963 17.9278 1.98833C17.8363 1.49703 17.3675 1.17363 16.8807 1.266C16.3939 1.35837 16.0735 1.83154 16.1651 2.32284C16.2566 2.81414 16.7254 3.13754 17.2121 3.04517Z" fill="url(#paint11_linear)"/>
<path d="M20.2722 19.7407C20.475 19.7022 20.6086 19.5051 20.5704 19.3004C20.5323 19.0957 20.337 18.9609 20.1341 18.9994C19.9313 19.0379 19.7978 19.235 19.836 19.4397C19.8741 19.6445 20.0694 19.7792 20.2722 19.7407Z" fill="url(#paint12_linear)"/>
<path d="M18.4082 20.1712C18.6515 20.125 18.8117 19.8884 18.766 19.6428C18.7202 19.3971 18.4858 19.2354 18.2425 19.2816C17.9991 19.3278 17.8389 19.5644 17.8846 19.81C17.9304 20.0557 18.1648 20.2174 18.4082 20.1712Z" fill="url(#paint13_linear)"/>
<path d="M16.4145 20.6263C16.6985 20.5724 16.8854 20.2964 16.832 20.0098C16.7786 19.7232 16.5051 19.5346 16.2212 19.5884C15.9373 19.6423 15.7504 19.9183 15.8037 20.2049C15.8571 20.4915 16.1306 20.6802 16.4145 20.6263Z" fill="url(#paint14_linear)"/>
<path d="M14.2984 21.1046C14.6229 21.043 14.8365 20.7276 14.7755 20.4001C14.7145 20.0725 14.402 19.8569 14.0774 19.9185C13.7529 19.9801 13.5393 20.2955 13.6003 20.6231C13.6614 20.9506 13.9739 21.1662 14.2984 21.1046Z" fill="url(#paint15_linear)"/>
<path d="M12.2273 21.5744C12.5924 21.5051 12.8327 21.1503 12.764 20.7818C12.6954 20.4133 12.3438 20.1707 11.9787 20.24C11.6137 20.3093 11.3734 20.6642 11.442 21.0327C11.5106 21.4011 11.8622 21.6437 12.2273 21.5744Z" fill="url(#paint16_linear)"/>
<path d="M10.137 22.0478C10.5426 21.9708 10.8097 21.5765 10.7334 21.1671C10.6571 20.7577 10.2665 20.4882 9.86083 20.5652C9.4552 20.6422 9.18819 21.0365 9.26446 21.4459C9.34072 21.8553 9.73138 22.1248 10.137 22.0478Z" fill="url(#paint17_linear)"/>
<path d="M8.02087 22.5262C8.46707 22.4415 8.76078 22.0078 8.67689 21.5574C8.59299 21.107 8.16327 20.8106 7.71707 20.8953C7.27088 20.9799 6.97717 21.4137 7.06106 21.864C7.14496 22.3144 7.57468 22.6108 8.02087 22.5262Z" fill="url(#paint18_linear)"/>
<path d="M13.0827 3.98232C13.6505 3.87455 14.0243 3.32253 13.9176 2.74934C13.8108 2.17616 13.2639 1.79886 12.696 1.90663C12.1281 2.01439 11.7543 2.56642 11.8611 3.1396C11.9678 3.71279 12.5148 4.09009 13.0827 3.98232Z" fill="url(#paint19_linear)"/>
<path d="M15.1107 3.52071C15.638 3.42064 15.9851 2.90805 15.8859 2.37581C15.7868 1.84356 15.2789 1.49322 14.7516 1.59328C14.2243 1.69335 13.8772 2.20595 13.9763 2.73819C14.0755 3.27044 14.5833 3.62078 15.1107 3.52071Z" fill="url(#paint20_linear)"/>
<path d="M10.4818 13.2178C10.9686 13.1254 11.289 12.6523 11.1974 12.161C11.1059 11.6696 10.6371 11.3463 10.1504 11.4386C9.66361 11.531 9.34321 12.0042 9.43472 12.4955C9.52624 12.9868 9.99503 13.3102 10.4818 13.2178Z" fill="url(#paint21_linear)"/>
<path d="M12.5979 12.7395C13.0441 12.6548 13.3378 12.2211 13.2539 11.7707C13.17 11.3203 12.7403 11.0239 12.2941 11.1086C11.8479 11.1932 11.5542 11.627 11.6381 12.0773C11.722 12.5277 12.1517 12.8241 12.5979 12.7395Z" fill="url(#paint22_linear)"/>
<path d="M14.7426 12.3325C15.1888 12.2478 15.4825 11.8141 15.3986 11.3637C15.3147 10.9133 14.885 10.6169 14.4388 10.7016C13.9926 10.7862 13.6989 11.22 13.7827 11.6703C13.8666 12.1207 14.2964 12.4171 14.7426 12.3325Z" fill="url(#paint23_linear)"/>
<path d="M16.8587 11.8541C17.2643 11.7772 17.5313 11.3829 17.4551 10.9734C17.3788 10.564 16.9882 10.2945 16.5825 10.3715C16.1769 10.4485 15.9099 10.8428 15.9861 11.2522C16.0624 11.6616 16.4531 11.9311 16.8587 11.8541Z" fill="url(#paint24_linear)"/>
<path d="M18.949 11.3807C19.314 11.3114 19.5544 10.9566 19.4857 10.5881C19.4171 10.2196 19.0655 9.97707 18.7004 10.0463C18.3353 10.1156 18.095 10.4705 18.1637 10.839C18.2323 11.2075 18.5839 11.45 18.949 11.3807Z" fill="url(#paint25_linear)"/>
<path d="M21.0201 10.9109C21.3446 10.8494 21.5582 10.5339 21.4972 10.2064C21.4362 9.87884 21.1236 9.66325 20.7991 9.72483C20.4746 9.78641 20.261 10.1019 20.322 10.4294C20.383 10.7569 20.6956 10.9725 21.0201 10.9109Z" fill="url(#paint26_linear)"/>
<path d="M23.1362 10.4326C23.4202 10.3787 23.6071 10.1027 23.5537 9.81612C23.5003 9.52952 23.2268 9.34088 22.9429 9.39476C22.6589 9.44864 22.472 9.72466 22.5254 10.0112C22.5788 10.2978 22.8523 10.4865 23.1362 10.4326Z" fill="url(#paint27_linear)"/>
<path d="M6.35232 14.1549C6.92021 14.0472 7.29402 13.4952 7.18725 12.922C7.08048 12.3488 6.53356 11.9715 5.96567 12.0792C5.39778 12.187 5.02397 12.739 5.13074 13.3122C5.23751 13.8854 5.78443 14.2627 6.35232 14.1549Z" fill="url(#paint28_linear)"/>
<path d="M8.38033 13.6933C8.90765 13.5933 9.25476 13.0807 9.15561 12.5484C9.05647 12.0162 8.54861 11.6658 8.02129 11.7659C7.49397 11.866 7.14686 12.3786 7.246 12.9108C7.34515 13.4431 7.853 13.7934 8.38033 13.6933Z" fill="url(#paint29_linear)"/>
<path d="M5.38958 20.8468C5.87634 20.7545 6.19675 20.2813 6.10523 19.79C6.01372 19.2987 5.54493 18.9753 5.05817 19.0677C4.5714 19.16 4.251 19.6332 4.34252 20.1245C4.43403 20.6158 4.90282 20.9392 5.38958 20.8468Z" fill="url(#paint30_linear)"/>
<path d="M7.50571 20.3685C7.95191 20.2838 8.24561 19.8501 8.16172 19.3997C8.07783 18.9494 7.64811 18.6529 7.20191 18.7376C6.75571 18.8223 6.46201 19.256 6.5459 19.7064C6.62979 20.1567 7.05951 20.4532 7.50571 20.3685Z" fill="url(#paint31_linear)"/>
<path d="M9.65035 19.9615C10.0965 19.8768 10.3903 19.4431 10.3064 18.9927C10.2225 18.5424 9.79275 18.2459 9.34655 18.3306C8.90035 18.4153 8.60665 18.849 8.69054 19.2994C8.77443 19.7497 9.20415 20.0462 9.65035 19.9615Z" fill="url(#paint32_linear)"/>
<path d="M11.7665 19.4832C12.1721 19.4062 12.4391 19.0119 12.3629 18.6025C12.2866 18.1931 11.8959 17.9236 11.4903 18.0005C11.0847 18.0775 10.8177 18.4718 10.8939 18.8812C10.9702 19.2907 11.3609 19.5602 11.7665 19.4832Z" fill="url(#paint33_linear)"/>
<path d="M13.8568 19.0098C14.2218 18.9405 14.4621 18.5856 14.3935 18.2171C14.3249 17.8487 13.9733 17.6061 13.6082 17.6754C13.2431 17.7447 13.0028 18.0995 13.0715 18.468C13.1401 18.8365 13.4917 19.079 13.8568 19.0098Z" fill="url(#paint34_linear)"/>
<path d="M15.9279 18.54C16.2524 18.4784 16.466 18.163 16.405 17.8354C16.344 17.5079 16.0314 17.2923 15.7069 17.3539C15.3824 17.4154 15.1688 17.7309 15.2298 18.0584C15.2908 18.386 15.6034 18.6016 15.9279 18.54Z" fill="url(#paint35_linear)"/>
<path d="M18.044 18.0616C18.3279 18.0078 18.5149 17.7318 18.4615 17.4452C18.4081 17.1586 18.1346 16.9699 17.8507 17.0238C17.5667 17.0777 17.3798 17.3537 17.4332 17.6403C17.4866 17.9269 17.7601 18.1155 18.044 18.0616Z" fill="url(#paint36_linear)"/>
<path d="M20.0376 17.6066C20.281 17.5604 20.4412 17.3238 20.3955 17.0781C20.3497 16.8325 20.1153 16.6708 19.8719 16.717C19.6285 16.7632 19.4683 16.9997 19.5141 17.2454C19.5599 17.4911 19.7943 17.6527 20.0376 17.6066Z" fill="url(#paint37_linear)"/>
<path d="M21.9017 17.1761C22.1045 17.1376 22.238 16.9404 22.1999 16.7357C22.1618 16.531 21.9664 16.3963 21.7636 16.4347C21.5608 16.4732 21.4273 16.6704 21.4654 16.8751C21.5036 17.0798 21.6989 17.2146 21.9017 17.1761Z" fill="url(#paint38_linear)"/>
<path d="M12.2651 10.5882C12.7518 10.4959 13.0722 10.0227 12.9807 9.53141C12.8892 9.0401 12.4204 8.71671 11.9336 8.80908C11.4469 8.90145 11.1265 9.37461 11.218 9.86592C11.3095 10.3572 11.7783 10.6806 12.2651 10.5882Z" fill="url(#paint39_linear)"/>
<path d="M14.3812 10.1099C14.8274 10.0252 15.1211 9.59151 15.0372 9.14115C14.9533 8.69079 14.5236 8.39434 14.0774 8.47901C13.6312 8.56369 13.3375 8.99742 13.4214 9.44778C13.5053 9.89814 13.935 10.1946 14.3812 10.1099Z" fill="url(#paint40_linear)"/>
<path d="M16.5258 9.70293C16.972 9.61825 17.2657 9.18452 17.1818 8.73416C17.0979 8.2838 16.6682 7.98735 16.222 8.07203C15.7758 8.1567 15.4821 8.59043 15.566 9.04079C15.6499 9.49115 16.0796 9.7876 16.5258 9.70293Z" fill="url(#paint41_linear)"/>
<path d="M18.642 9.2246C19.0476 9.14762 19.3146 8.75332 19.2383 8.3439C19.1621 7.93448 18.7714 7.66498 18.3658 7.74196C17.9601 7.81894 17.6931 8.21324 17.7694 8.62266C17.8457 9.03208 18.2363 9.30157 18.642 9.2246Z" fill="url(#paint42_linear)"/>
<path d="M20.7322 8.75117C21.0973 8.6819 21.3376 8.32702 21.269 7.95855C21.2003 7.59007 20.8487 7.34752 20.4837 7.4168C20.1186 7.48608 19.8783 7.84095 19.9469 8.20943C20.0156 8.57791 20.3672 8.82045 20.7322 8.75117Z" fill="url(#paint43_linear)"/>
<path d="M22.8033 8.28139C23.1278 8.21981 23.3414 7.90437 23.2804 7.57683C23.2194 7.2493 22.9069 7.0337 22.5824 7.09528C22.2579 7.15686 22.0443 7.4723 22.1053 7.79984C22.1663 8.12737 22.4788 8.34297 22.8033 8.28139Z" fill="url(#paint44_linear)"/>
<path d="M10.9389 9.91888C11.038 10.4511 10.6909 10.9637 10.1636 11.0638C9.63627 11.1639 9.12842 10.8135 9.02927 10.2813C8.93012 9.74902 9.27723 9.23643 9.80456 9.13636C10.3319 9.03629 10.8397 9.38664 10.9389 9.91888Z" fill="url(#paint45_linear)"/>
<path d="M7.89884 17.2253C7.99035 17.7167 7.66995 18.1898 7.18318 18.2822C6.69642 18.3746 6.22764 18.0512 6.13612 17.5599C6.0446 17.0686 6.36501 16.5954 6.85177 16.503C7.33853 16.4106 7.80732 16.734 7.89884 17.2253Z" fill="url(#paint46_linear)"/>
<path d="M9.95532 16.8351C10.0392 17.2854 9.74551 17.7192 9.29931 17.8039C8.85311 17.8885 8.42339 17.5921 8.3395 17.1417C8.25561 16.6914 8.54932 16.2576 8.99551 16.173C9.44171 16.0883 9.87143 16.3847 9.95532 16.8351Z" fill="url(#paint47_linear)"/>
<path d="M12.1 16.4281C12.1839 16.8785 11.8901 17.3122 11.4439 17.3969C10.9978 17.4815 10.568 17.1851 10.4841 16.7347C10.4002 16.2844 10.694 15.8506 11.1402 15.766C11.5863 15.6813 12.0161 15.9777 12.1 16.4281Z" fill="url(#paint48_linear)"/>
<path d="M14.1565 16.0378C14.2327 16.4473 13.9657 16.8416 13.5601 16.9185C13.1545 16.9955 12.7638 16.726 12.6875 16.3166C12.6113 15.9072 12.8783 15.5129 13.2839 15.4359C13.6895 15.3589 14.0802 15.6284 14.1565 16.0378Z" fill="url(#paint49_linear)"/>
<path d="M16.1871 15.6525C16.2557 16.021 16.0154 16.3758 15.6504 16.4451C15.2853 16.5144 14.9337 16.2718 14.8651 15.9034C14.7964 15.5349 15.0367 15.18 15.4018 15.1107C15.7669 15.0415 16.1185 15.284 16.1871 15.6525Z" fill="url(#paint50_linear)"/>
<path d="M18.1986 15.2708C18.2596 15.5983 18.046 15.9138 17.7215 15.9753C17.397 16.0369 17.0844 15.8213 17.0234 15.4938C16.9624 15.1662 17.176 14.8508 17.5005 14.7892C17.825 14.7276 18.1376 14.9432 18.1986 15.2708Z" fill="url(#paint51_linear)"/>
<path d="M20.2551 14.8805C20.3085 15.1671 20.1215 15.4431 19.8376 15.497C19.5537 15.5509 19.2802 15.3622 19.2268 15.0756C19.1734 14.789 19.3603 14.513 19.6443 14.4592C19.9282 14.4053 20.2017 14.5939 20.2551 14.8805Z" fill="url(#paint52_linear)"/>
<path d="M22.1891 14.5135C22.2348 14.7591 22.0746 14.9957 21.8312 15.0419C21.5879 15.0881 21.3535 14.9264 21.3077 14.6808C21.2619 14.4351 21.4221 14.1985 21.6655 14.1523C21.9089 14.1061 22.1433 14.2678 22.1891 14.5135Z" fill="url(#paint53_linear)"/>
<path d="M23.9935 14.1711C24.0316 14.3758 23.8981 14.5729 23.6953 14.6114C23.4925 14.6499 23.2972 14.5152 23.259 14.3104C23.2209 14.1057 23.3544 13.9086 23.5572 13.8701C23.76 13.8316 23.9554 13.9664 23.9935 14.1711Z" fill="url(#paint54_linear)"/>
<path d="M5.08172 18.7577C5.60904 18.6577 5.95615 18.1451 5.85701 17.6128C5.75786 17.0806 5.25001 16.7302 4.72268 16.8303C4.19536 16.9304 3.84825 17.443 3.9474 17.9752C4.04654 18.5075 4.5544 18.8578 5.08172 18.7577Z" fill="url(#paint55_linear)"/>
<path d="M13.9092 8.17446C14.396 8.08209 14.7164 7.60892 14.6248 7.11762C14.5333 6.62632 14.0645 6.30292 13.5778 6.39529C13.091 6.48767 12.7706 6.96083 12.8621 7.45213C12.9536 7.94343 13.4224 8.26683 13.9092 8.17446Z" fill="url(#paint56_linear)"/>
<path d="M16.0253 7.69613C16.4715 7.61146 16.7652 7.17772 16.6813 6.72736C16.5974 6.277 16.1677 5.98056 15.7215 6.06523C15.2753 6.1499 14.9816 6.58364 15.0655 7.034C15.1494 7.48436 15.5791 7.78081 16.0253 7.69613Z" fill="url(#paint57_linear)"/>
<path d="M18.17 7.28914C18.6162 7.20447 18.9099 6.77074 18.826 6.32038C18.7421 5.87002 18.3124 5.57357 17.8662 5.65824C17.42 5.74292 17.1263 6.17665 17.2101 6.62701C17.294 7.07737 17.7238 7.37382 18.17 7.28914Z" fill="url(#paint58_linear)"/>
<path d="M20.2861 6.81081C20.6917 6.73384 20.9587 6.33953 20.8825 5.93012C20.8062 5.5207 20.4156 5.2512 20.0099 5.32818C19.6043 5.40515 19.3373 5.79945 19.4135 6.20887C19.4898 6.61829 19.8805 6.88779 20.2861 6.81081Z" fill="url(#paint59_linear)"/>
<path d="M9.77972 9.11161C10.3476 9.00384 10.7214 8.45182 10.6146 7.87863C10.5079 7.30545 9.96096 6.92815 9.39307 7.03592C8.82518 7.14369 8.45137 7.69571 8.55814 8.2689C8.66492 8.84208 9.21183 9.21938 9.77972 9.11161Z" fill="url(#paint60_linear)"/>
<path d="M11.8077 8.65001C12.3351 8.54994 12.6822 8.03734 12.583 7.5051C12.4839 6.97285 11.976 6.62251 11.4487 6.72258C10.9214 6.82265 10.5743 7.33524 10.6734 7.86748C10.7725 8.39973 11.2804 8.75007 11.8077 8.65001Z" fill="url(#paint61_linear)"/>
<path d="M8.82732 15.8684C9.31408 15.776 9.63449 15.3029 9.54297 14.8116C9.45145 14.3203 8.98266 13.9969 8.4959 14.0892C8.00914 14.1816 7.68873 14.6548 7.78025 15.1461C7.87177 15.6374 8.34056 15.9608 8.82732 15.8684Z" fill="url(#paint62_linear)"/>
<path d="M10.9434 15.3901C11.3896 15.3054 11.6834 14.8717 11.5995 14.4213C11.5156 13.9709 11.0858 13.6745 10.6396 13.7592C10.1934 13.8438 9.89974 14.2776 9.98363 14.7279C10.0675 15.1783 10.4972 15.4747 10.9434 15.3901Z" fill="url(#paint63_linear)"/>
<path d="M13.0881 14.9831C13.5343 14.8984 13.828 14.4647 13.7441 14.0143C13.6602 13.564 13.2305 13.2675 12.7843 13.3522C12.3381 13.4369 12.0444 13.8706 12.1283 14.3209C12.2122 14.7713 12.6419 15.0678 13.0881 14.9831Z" fill="url(#paint64_linear)"/>
<path d="M15.2042 14.5047C15.6099 14.4278 15.8769 14.0335 15.8006 13.6241C15.7243 13.2146 15.3337 12.9451 14.928 13.0221C14.5224 13.0991 14.2554 13.4934 14.3317 13.9028C14.4079 14.3122 14.7986 14.5817 15.2042 14.5047Z" fill="url(#paint65_linear)"/>
<path d="M17.2945 14.0313C17.6596 13.962 17.8999 13.6072 17.8312 13.2387C17.7626 12.8702 17.411 12.6277 17.0459 12.697C16.6809 12.7662 16.4406 13.1211 16.5092 13.4896C16.5778 13.8581 16.9294 14.1006 17.2945 14.0313Z" fill="url(#paint66_linear)"/>
<path d="M19.3656 13.5615C19.6901 13.5 19.9037 13.1845 19.8427 12.857C19.7817 12.5295 19.4692 12.3139 19.1447 12.3754C18.8201 12.437 18.6065 12.7525 18.6676 13.08C18.7286 13.4075 19.0411 13.6231 19.3656 13.5615Z" fill="url(#paint67_linear)"/>
<path d="M21.4817 13.0832C21.7657 13.0293 21.9526 12.7533 21.8992 12.4667C21.8458 12.1801 21.5724 11.9915 21.2884 12.0454C21.0045 12.0993 20.8176 12.3753 20.871 12.6619C20.9243 12.9485 21.1978 13.1371 21.4817 13.0832Z" fill="url(#paint68_linear)"/>
<path d="M23.4754 12.6281C23.7188 12.5819 23.879 12.3454 23.8332 12.0997C23.7874 11.8541 23.553 11.6924 23.3097 11.7385C23.0663 11.7847 22.9061 12.0213 22.9518 12.267C22.9976 12.5126 23.232 12.6743 23.4754 12.6281Z" fill="url(#paint69_linear)"/>
<path d="M4.69785 16.8055C5.26574 16.6978 5.63955 16.1458 5.53277 15.5726C5.426 14.9994 4.87908 14.6221 4.3112 14.7299C3.74331 14.8376 3.3695 15.3896 3.47627 15.9628C3.58304 16.536 4.12996 16.9133 4.69785 16.8055Z" fill="url(#paint70_linear)"/>
<path d="M6.72585 16.3439C7.25318 16.2439 7.60029 15.7313 7.50114 15.199C7.402 14.6668 6.89414 14.3164 6.36682 14.4165C5.8395 14.5166 5.49239 15.0292 5.59153 15.5614C5.69068 16.0937 6.19853 16.444 6.72585 16.3439Z" fill="url(#paint71_linear)"/>
<path d="M10.5685 23.9882C10.9336 23.9189 11.1739 23.564 11.1052 23.1956C11.0366 22.8271 10.685 22.5845 10.3199 22.6538C9.95486 22.7231 9.71456 23.078 9.7832 23.4464C9.85183 23.8149 10.2034 24.0575 10.5685 23.9882Z" fill="url(#paint72_linear)"/>
<path d="M12.6396 23.5184C12.9641 23.4568 13.1777 23.1414 13.1167 22.8139C13.0557 22.4863 12.7432 22.2707 12.4186 22.3323C12.0941 22.3939 11.8805 22.7093 11.9415 23.0369C12.0026 23.3644 12.3151 23.58 12.6396 23.5184Z" fill="url(#paint73_linear)"/>
<path d="M14.7557 23.0401C15.0397 22.9862 15.2266 22.7102 15.1732 22.4236C15.1198 22.137 14.8464 21.9483 14.5624 22.0022C14.2785 22.0561 14.0916 22.3321 14.1449 22.6187C14.1983 22.9053 14.4718 23.094 14.7557 23.0401Z" fill="url(#paint74_linear)"/>
<path d="M16.7494 22.585C16.9927 22.5388 17.153 22.3022 17.1072 22.0566C17.0614 21.8109 16.827 21.6492 16.5837 21.6954C16.3403 21.7416 16.1801 21.9782 16.2258 22.2238C16.2716 22.4695 16.506 22.6312 16.7494 22.585Z" fill="url(#paint75_linear)"/>
<path d="M18.6134 22.1545C18.8163 22.116 18.9498 21.9189 18.9116 21.7141C18.8735 21.5094 18.6782 21.3747 18.4753 21.4132C18.2725 21.4517 18.139 21.6488 18.1772 21.8535C18.2153 22.0582 18.4106 22.193 18.6134 22.1545Z" fill="url(#paint76_linear)"/>
<path d="M16.269 4.55298C16.3605 5.04428 16.0401 5.51744 15.5533 5.60981C15.0666 5.70218 14.5978 5.37879 14.5063 4.88749C14.4147 4.39618 14.7352 3.92302 15.2219 3.83065C15.7087 3.73828 16.1775 4.06167 16.269 4.55298Z" fill="url(#paint77_linear)"/>
<path d="M18.3255 4.16272C18.4094 4.61308 18.1157 5.04681 17.6695 5.13148C17.2233 5.21616 16.7935 4.91971 16.7096 4.46935C16.6257 4.01899 16.9195 3.58526 17.3657 3.50058C17.8119 3.41591 18.2416 3.71236 18.3255 4.16272Z" fill="url(#paint78_linear)"/>
<path d="M20.4701 3.75573C20.554 4.20609 20.2603 4.63982 19.8141 4.7245C19.3679 4.80917 18.9382 4.51273 18.8543 4.06237C18.7704 3.612 19.0641 3.17827 19.5103 3.0936C19.9565 3.00892 20.3862 3.30537 20.4701 3.75573Z" fill="url(#paint79_linear)"/>
<path d="M12.2588 5.31399C12.3656 5.88717 11.9917 6.4392 11.4239 6.54696C10.856 6.65473 10.3091 6.27743 10.2023 5.70425C10.0955 5.13106 10.4693 4.57904 11.0372 4.47127C11.6051 4.3635 12.152 4.7408 12.2588 5.31399Z" fill="url(#paint80_linear)"/>
<path d="M14.2271 4.94045C14.3263 5.4727 13.9792 5.98529 13.4519 6.08536C12.9245 6.18543 12.4167 5.83508 12.3175 5.30284C12.2184 4.77059 12.5655 4.258 13.0928 4.15793C13.6202 4.05786 14.128 4.40821 14.2271 4.94045Z" fill="url(#paint81_linear)"/>
</g>
<defs>
<linearGradient id="paint0_linear" x1="17.1229" y1="1.23243" x2="6.80423" y2="22.7313" gradientUnits="userSpaceOnUse">
<stop stop-color="#173A82"/>
<stop offset="1" stop-color="#329ACA"/>
</linearGradient>
<linearGradient id="paint1_linear" x1="17.1229" y1="1.23243" x2="6.80423" y2="22.7313" gradientUnits="userSpaceOnUse">
<stop stop-color="#173A82"/>
<stop offset="1" stop-color="#329ACA"/>
</linearGradient>
<linearGradient id="paint2_linear" x1="17.1229" y1="1.23243" x2="6.80423" y2="22.7313" gradientUnits="userSpaceOnUse">
<stop stop-color="#173A82"/>
<stop offset="1" stop-color="#329ACA"/>
</linearGradient>
<linearGradient id="paint3_linear" x1="17.1229" y1="1.23243" x2="6.80423" y2="22.7313" gradientUnits="userSpaceOnUse">
<stop stop-color="#173A82"/>
<stop offset="1" stop-color="#329ACA"/>
</linearGradient>
<linearGradient id="paint4_linear" x1="17.1229" y1="1.23243" x2="6.80423" y2="22.7313" gradientUnits="userSpaceOnUse">
<stop stop-color="#173A82"/>
<stop offset="1" stop-color="#329ACA"/>
</linearGradient>
<linearGradient id="paint5_linear" x1="17.1229" y1="1.23243" x2="6.80423" y2="22.7313" gradientUnits="userSpaceOnUse">
<stop stop-color="#173A82"/>
<stop offset="1" stop-color="#329ACA"/>
</linearGradient>
<linearGradient id="paint6_linear" x1="17.1229" y1="1.23243" x2="6.80423" y2="22.7313" gradientUnits="userSpaceOnUse">
<stop stop-color="#173A82"/>
<stop offset="1" stop-color="#329ACA"/>
</linearGradient>
<linearGradient id="paint7_linear" x1="17.1229" y1="1.23243" x2="6.80423" y2="22.7313" gradientUnits="userSpaceOnUse">
<stop stop-color="#173A82"/>
<stop offset="1" stop-color="#329ACA"/>
</linearGradient>
<linearGradient id="paint8_linear" x1="17.1229" y1="1.23243" x2="6.80423" y2="22.7313" gradientUnits="userSpaceOnUse">
<stop stop-color="#173A82"/>
<stop offset="1" stop-color="#329ACA"/>
</linearGradient>
<linearGradient id="paint9_linear" x1="17.1229" y1="1.23243" x2="6.80423" y2="22.7313" gradientUnits="userSpaceOnUse">
<stop stop-color="#173A82"/>
<stop offset="1" stop-color="#329ACA"/>
</linearGradient>
<linearGradient id="paint10_linear" x1="17.1229" y1="1.23243" x2="6.80423" y2="22.7313" gradientUnits="userSpaceOnUse">
<stop stop-color="#173A82"/>
<stop offset="1" stop-color="#329ACA"/>
</linearGradient>
<linearGradient id="paint11_linear" x1="17.1229" y1="1.23243" x2="6.80423" y2="22.7313" gradientUnits="userSpaceOnUse">
<stop stop-color="#173A82"/>
<stop offset="1" stop-color="#329ACA"/>
</linearGradient>
<linearGradient id="paint12_linear" x1="17.1229" y1="1.23243" x2="6.80423" y2="22.7313" gradientUnits="userSpaceOnUse">
<stop stop-color="#173A82"/>
<stop offset="1" stop-color="#329ACA"/>
</linearGradient>
<linearGradient id="paint13_linear" x1="17.1229" y1="1.23243" x2="6.80423" y2="22.7313" gradientUnits="userSpaceOnUse">
<stop stop-color="#173A82"/>
<stop offset="1" stop-color="#329ACA"/>
</linearGradient>
<linearGradient id="paint14_linear" x1="17.1229" y1="1.23243" x2="6.80423" y2="22.7313" gradientUnits="userSpaceOnUse">
<stop stop-color="#173A82"/>
<stop offset="1" stop-color="#329ACA"/>
</linearGradient>
<linearGradient id="paint15_linear" x1="17.1229" y1="1.23243" x2="6.80423" y2="22.7313" gradientUnits="userSpaceOnUse">
<stop stop-color="#173A82"/>
<stop offset="1" stop-color="#329ACA"/>
</linearGradient>
<linearGradient id="paint16_linear" x1="17.1229" y1="1.23243" x2="6.80423" y2="22.7313" gradientUnits="userSpaceOnUse">
<stop stop-color="#173A82"/>
<stop offset="1" stop-color="#329ACA"/>
</linearGradient>
<linearGradient id="paint17_linear" x1="17.1229" y1="1.23243" x2="6.80423" y2="22.7313" gradientUnits="userSpaceOnUse">
<stop stop-color="#173A82"/>
<stop offset="1" stop-color="#329ACA"/>
</linearGradient>
<linearGradient id="paint18_linear" x1="17.1229" y1="1.23243" x2="6.80423" y2="22.7313" gradientUnits="userSpaceOnUse">
<stop stop-color="#173A82"/>
<stop offset="1" stop-color="#329ACA"/>
</linearGradient>
<linearGradient id="paint19_linear" x1="17.1229" y1="1.23243" x2="6.80423" y2="22.7313" gradientUnits="userSpaceOnUse">
<stop stop-color="#173A82"/>
<stop offset="1" stop-color="#329ACA"/>
</linearGradient>
<linearGradient id="paint20_linear" x1="17.1229" y1="1.23243" x2="6.80423" y2="22.7313" gradientUnits="userSpaceOnUse">
<stop stop-color="#173A82"/>
<stop offset="1" stop-color="#329ACA"/>
</linearGradient>
<linearGradient id="paint21_linear" x1="17.1229" y1="1.23243" x2="6.80423" y2="22.7313" gradientUnits="userSpaceOnUse">
<stop stop-color="#173A82"/>
<stop offset="1" stop-color="#329ACA"/>
</linearGradient>
<linearGradient id="paint22_linear" x1="17.1229" y1="1.23243" x2="6.80423" y2="22.7313" gradientUnits="userSpaceOnUse">
<stop stop-color="#173A82"/>
<stop offset="1" stop-color="#329ACA"/>
</linearGradient>
<linearGradient id="paint23_linear" x1="17.1229" y1="1.23243" x2="6.80423" y2="22.7313" gradientUnits="userSpaceOnUse">
<stop stop-color="#173A82"/>
<stop offset="1" stop-color="#329ACA"/>
</linearGradient>
<linearGradient id="paint24_linear" x1="17.1229" y1="1.23243" x2="6.80423" y2="22.7313" gradientUnits="userSpaceOnUse">
<stop stop-color="#173A82"/>
<stop offset="1" stop-color="#329ACA"/>
</linearGradient>
<linearGradient id="paint25_linear" x1="17.1229" y1="1.23243" x2="6.80423" y2="22.7313" gradientUnits="userSpaceOnUse">
<stop stop-color="#173A82"/>
<stop offset="1" stop-color="#329ACA"/>
</linearGradient>
<linearGradient id="paint26_linear" x1="17.1229" y1="1.23243" x2="6.80423" y2="22.7313" gradientUnits="userSpaceOnUse">
<stop stop-color="#173A82"/>
<stop offset="1" stop-color="#329ACA"/>
</linearGradient>
<linearGradient id="paint27_linear" x1="17.1229" y1="1.23243" x2="6.80423" y2="22.7313" gradientUnits="userSpaceOnUse">
<stop stop-color="#173A82"/>
<stop offset="1" stop-color="#329ACA"/>
</linearGradient>
<linearGradient id="paint28_linear" x1="17.1229" y1="1.23243" x2="6.80423" y2="22.7313" gradientUnits="userSpaceOnUse">
<stop stop-color="#173A82"/>
<stop offset="1" stop-color="#329ACA"/>
</linearGradient>
<linearGradient id="paint29_linear" x1="17.1229" y1="1.23243" x2="6.80423" y2="22.7313" gradientUnits="userSpaceOnUse">
<stop stop-color="#173A82"/>
<stop offset="1" stop-color="#329ACA"/>
</linearGradient>
<linearGradient id="paint30_linear" x1="17.1229" y1="1.23243" x2="6.80423" y2="22.7313" gradientUnits="userSpaceOnUse">
<stop stop-color="#173A82"/>
<stop offset="1" stop-color="#329ACA"/>
</linearGradient>
<linearGradient id="paint31_linear" x1="17.1229" y1="1.23243" x2="6.80423" y2="22.7313" gradientUnits="userSpaceOnUse">
<stop stop-color="#173A82"/>
<stop offset="1" stop-color="#329ACA"/>
</linearGradient>
<linearGradient id="paint32_linear" x1="17.1229" y1="1.23243" x2="6.80423" y2="22.7313" gradientUnits="userSpaceOnUse">
<stop stop-color="#173A82"/>
<stop offset="1" stop-color="#329ACA"/>
</linearGradient>
<linearGradient id="paint33_linear" x1="17.1229" y1="1.23243" x2="6.80423" y2="22.7313" gradientUnits="userSpaceOnUse">
<stop stop-color="#173A82"/>
<stop offset="1" stop-color="#329ACA"/>
</linearGradient>
<linearGradient id="paint34_linear" x1="17.1229" y1="1.23243" x2="6.80423" y2="22.7313" gradientUnits="userSpaceOnUse">
<stop stop-color="#173A82"/>
<stop offset="1" stop-color="#329ACA"/>
</linearGradient>
<linearGradient id="paint35_linear" x1="17.1229" y1="1.23243" x2="6.80423" y2="22.7313" gradientUnits="userSpaceOnUse">
<stop stop-color="#173A82"/>
<stop offset="1" stop-color="#329ACA"/>
</linearGradient>
<linearGradient id="paint36_linear" x1="17.1229" y1="1.23243" x2="6.80423" y2="22.7313" gradientUnits="userSpaceOnUse">
<stop stop-color="#173A82"/>
<stop offset="1" stop-color="#329ACA"/>
</linearGradient>
<linearGradient id="paint37_linear" x1="17.1229" y1="1.23243" x2="6.80423" y2="22.7313" gradientUnits="userSpaceOnUse">
<stop stop-color="#173A82"/>
<stop offset="1" stop-color="#329ACA"/>
</linearGradient>
<linearGradient id="paint38_linear" x1="17.1229" y1="1.23243" x2="6.80423" y2="22.7313" gradientUnits="userSpaceOnUse">
<stop stop-color="#173A82"/>
<stop offset="1" stop-color="#329ACA"/>
</linearGradient>
<linearGradient id="paint39_linear" x1="17.1229" y1="1.23243" x2="6.80423" y2="22.7313" gradientUnits="userSpaceOnUse">
<stop stop-color="#173A82"/>
<stop offset="1" stop-color="#329ACA"/>
</linearGradient>
<linearGradient id="paint40_linear" x1="17.1229" y1="1.23243" x2="6.80423" y2="22.7313" gradientUnits="userSpaceOnUse">
<stop stop-color="#173A82"/>
<stop offset="1" stop-color="#329ACA"/>
</linearGradient>
<linearGradient id="paint41_linear" x1="17.1229" y1="1.23243" x2="6.80423" y2="22.7313" gradientUnits="userSpaceOnUse">
<stop stop-color="#173A82"/>
<stop offset="1" stop-color="#329ACA"/>
</linearGradient>
<linearGradient id="paint42_linear" x1="17.1229" y1="1.23243" x2="6.80423" y2="22.7313" gradientUnits="userSpaceOnUse">
<stop stop-color="#173A82"/>
<stop offset="1" stop-color="#329ACA"/>
</linearGradient>
<linearGradient id="paint43_linear" x1="17.1229" y1="1.23243" x2="6.80423" y2="22.7313" gradientUnits="userSpaceOnUse">
<stop stop-color="#173A82"/>
<stop offset="1" stop-color="#329ACA"/>
</linearGradient>
<linearGradient id="paint44_linear" x1="17.1229" y1="1.23243" x2="6.80423" y2="22.7313" gradientUnits="userSpaceOnUse">
<stop stop-color="#173A82"/>
<stop offset="1" stop-color="#329ACA"/>
</linearGradient>
<linearGradient id="paint45_linear" x1="17.1229" y1="1.23243" x2="6.80423" y2="22.7313" gradientUnits="userSpaceOnUse">
<stop stop-color="#173A82"/>
<stop offset="1" stop-color="#329ACA"/>
</linearGradient>
<linearGradient id="paint46_linear" x1="17.1229" y1="1.23243" x2="6.80423" y2="22.7313" gradientUnits="userSpaceOnUse">
<stop stop-color="#173A82"/>
<stop offset="1" stop-color="#329ACA"/>
</linearGradient>
<linearGradient id="paint47_linear" x1="17.1229" y1="1.23243" x2="6.80423" y2="22.7313" gradientUnits="userSpaceOnUse">
<stop stop-color="#173A82"/>
<stop offset="1" stop-color="#329ACA"/>
</linearGradient>
<linearGradient id="paint48_linear" x1="17.1229" y1="1.23243" x2="6.80423" y2="22.7313" gradientUnits="userSpaceOnUse">
<stop stop-color="#173A82"/>
<stop offset="1" stop-color="#329ACA"/>
</linearGradient>
<linearGradient id="paint49_linear" x1="17.1229" y1="1.23243" x2="6.80423" y2="22.7313" gradientUnits="userSpaceOnUse">
<stop stop-color="#173A82"/>
<stop offset="1" stop-color="#329ACA"/>
</linearGradient>
<linearGradient id="paint50_linear" x1="17.1229" y1="1.23243" x2="6.80423" y2="22.7313" gradientUnits="userSpaceOnUse">
<stop stop-color="#173A82"/>
<stop offset="1" stop-color="#329ACA"/>
</linearGradient>
<linearGradient id="paint51_linear" x1="17.1229" y1="1.23243" x2="6.80423" y2="22.7313" gradientUnits="userSpaceOnUse">
<stop stop-color="#173A82"/>
<stop offset="1" stop-color="#329ACA"/>
</linearGradient>
<linearGradient id="paint52_linear" x1="17.1229" y1="1.23243" x2="6.80423" y2="22.7313" gradientUnits="userSpaceOnUse">
<stop stop-color="#173A82"/>
<stop offset="1" stop-color="#329ACA"/>
</linearGradient>
<linearGradient id="paint53_linear" x1="17.1229" y1="1.23243" x2="6.80423" y2="22.7313" gradientUnits="userSpaceOnUse">
<stop stop-color="#173A82"/>
<stop offset="1" stop-color="#329ACA"/>
</linearGradient>
<linearGradient id="paint54_linear" x1="17.1229" y1="1.23243" x2="6.80423" y2="22.7313" gradientUnits="userSpaceOnUse">
<stop stop-color="#173A82"/>
<stop offset="1" stop-color="#329ACA"/>
</linearGradient>
<linearGradient id="paint55_linear" x1="17.1229" y1="1.23243" x2="6.80423" y2="22.7313" gradientUnits="userSpaceOnUse">
<stop stop-color="#173A82"/>
<stop offset="1" stop-color="#329ACA"/>
</linearGradient>
<linearGradient id="paint56_linear" x1="17.1229" y1="1.23243" x2="6.80423" y2="22.7313" gradientUnits="userSpaceOnUse">
<stop stop-color="#173A82"/>
<stop offset="1" stop-color="#329ACA"/>
</linearGradient>
<linearGradient id="paint57_linear" x1="17.1229" y1="1.23243" x2="6.80423" y2="22.7313" gradientUnits="userSpaceOnUse">
<stop stop-color="#173A82"/>
<stop offset="1" stop-color="#329ACA"/>
</linearGradient>
<linearGradient id="paint58_linear" x1="17.1229" y1="1.23243" x2="6.80423" y2="22.7313" gradientUnits="userSpaceOnUse">
<stop stop-color="#173A82"/>
<stop offset="1" stop-color="#329ACA"/>
</linearGradient>
<linearGradient id="paint59_linear" x1="17.1229" y1="1.23243" x2="6.80423" y2="22.7313" gradientUnits="userSpaceOnUse">
<stop stop-color="#173A82"/>
<stop offset="1" stop-color="#329ACA"/>
</linearGradient>
<linearGradient id="paint60_linear" x1="17.1229" y1="1.23243" x2="6.80423" y2="22.7313" gradientUnits="userSpaceOnUse">
<stop stop-color="#173A82"/>
<stop offset="1" stop-color="#329ACA"/>
</linearGradient>
<linearGradient id="paint61_linear" x1="17.1229" y1="1.23243" x2="6.80423" y2="22.7313" gradientUnits="userSpaceOnUse">
<stop stop-color="#173A82"/>
<stop offset="1" stop-color="#329ACA"/>
</linearGradient>
<linearGradient id="paint62_linear" x1="17.1229" y1="1.23243" x2="6.80423" y2="22.7313" gradientUnits="userSpaceOnUse">
<stop stop-color="#173A82"/>
<stop offset="1" stop-color="#329ACA"/>
</linearGradient>
<linearGradient id="paint63_linear" x1="17.1229" y1="1.23243" x2="6.80423" y2="22.7313" gradientUnits="userSpaceOnUse">
<stop stop-color="#173A82"/>
<stop offset="1" stop-color="#329ACA"/>
</linearGradient>
<linearGradient id="paint64_linear" x1="17.1229" y1="1.23243" x2="6.80423" y2="22.7313" gradientUnits="userSpaceOnUse">
<stop stop-color="#173A82"/>
<stop offset="1" stop-color="#329ACA"/>
</linearGradient>
<linearGradient id="paint65_linear" x1="17.1229" y1="1.23243" x2="6.80423" y2="22.7313" gradientUnits="userSpaceOnUse">
<stop stop-color="#173A82"/>
<stop offset="1" stop-color="#329ACA"/>
</linearGradient>
<linearGradient id="paint66_linear" x1="17.1229" y1="1.23243" x2="6.80423" y2="22.7313" gradientUnits="userSpaceOnUse">
<stop stop-color="#173A82"/>
<stop offset="1" stop-color="#329ACA"/>
</linearGradient>
<linearGradient id="paint67_linear" x1="17.1229" y1="1.23243" x2="6.80423" y2="22.7313" gradientUnits="userSpaceOnUse">
<stop stop-color="#173A82"/>
<stop offset="1" stop-color="#329ACA"/>
</linearGradient>
<linearGradient id="paint68_linear" x1="17.1229" y1="1.23243" x2="6.80423" y2="22.7313" gradientUnits="userSpaceOnUse">
<stop stop-color="#173A82"/>
<stop offset="1" stop-color="#329ACA"/>
</linearGradient>
<linearGradient id="paint69_linear" x1="17.1229" y1="1.23243" x2="6.80423" y2="22.7313" gradientUnits="userSpaceOnUse">
<stop stop-color="#173A82"/>
<stop offset="1" stop-color="#329ACA"/>
</linearGradient>
<linearGradient id="paint70_linear" x1="17.1229" y1="1.23243" x2="6.80423" y2="22.7313" gradientUnits="userSpaceOnUse">
<stop stop-color="#173A82"/>
<stop offset="1" stop-color="#329ACA"/>
</linearGradient>
<linearGradient id="paint71_linear" x1="17.1229" y1="1.23243" x2="6.80423" y2="22.7313" gradientUnits="userSpaceOnUse">
<stop stop-color="#173A82"/>
<stop offset="1" stop-color="#329ACA"/>
</linearGradient>
<linearGradient id="paint72_linear" x1="17.1229" y1="1.23243" x2="6.80423" y2="22.7313" gradientUnits="userSpaceOnUse">
<stop stop-color="#173A82"/>
<stop offset="1" stop-color="#329ACA"/>
</linearGradient>
<linearGradient id="paint73_linear" x1="17.1229" y1="1.23243" x2="6.80423" y2="22.7313" gradientUnits="userSpaceOnUse">
<stop stop-color="#173A82"/>
<stop offset="1" stop-color="#329ACA"/>
</linearGradient>
<linearGradient id="paint74_linear" x1="17.1229" y1="1.23243" x2="6.80423" y2="22.7313" gradientUnits="userSpaceOnUse">
<stop stop-color="#173A82"/>
<stop offset="1" stop-color="#329ACA"/>
</linearGradient>
<linearGradient id="paint75_linear" x1="17.1229" y1="1.23243" x2="6.80423" y2="22.7313" gradientUnits="userSpaceOnUse">
<stop stop-color="#173A82"/>
<stop offset="1" stop-color="#329ACA"/>
</linearGradient>
<linearGradient id="paint76_linear" x1="17.1229" y1="1.23243" x2="6.80423" y2="22.7313" gradientUnits="userSpaceOnUse">
<stop stop-color="#173A82"/>
<stop offset="1" stop-color="#329ACA"/>
</linearGradient>
<linearGradient id="paint77_linear" x1="17.1229" y1="1.23243" x2="6.80423" y2="22.7313" gradientUnits="userSpaceOnUse">
<stop stop-color="#173A82"/>
<stop offset="1" stop-color="#329ACA"/>
</linearGradient>
<linearGradient id="paint78_linear" x1="17.1229" y1="1.23243" x2="6.80423" y2="22.7313" gradientUnits="userSpaceOnUse">
<stop stop-color="#173A82"/>
<stop offset="1" stop-color="#329ACA"/>
</linearGradient>
<linearGradient id="paint79_linear" x1="17.1229" y1="1.23243" x2="6.80423" y2="22.7313" gradientUnits="userSpaceOnUse">
<stop stop-color="#173A82"/>
<stop offset="1" stop-color="#329ACA"/>
</linearGradient>
<linearGradient id="paint80_linear" x1="17.1229" y1="1.23243" x2="6.80423" y2="22.7313" gradientUnits="userSpaceOnUse">
<stop stop-color="#173A82"/>
<stop offset="1" stop-color="#329ACA"/>
</linearGradient>
<linearGradient id="paint81_linear" x1="17.1229" y1="1.23243" x2="6.80423" y2="22.7313" gradientUnits="userSpaceOnUse">
<stop stop-color="#173A82"/>
<stop offset="1" stop-color="#329ACA"/>
</linearGradient>
</defs>
</svg>
