<svg width="24" height="24" viewBox="0 0 24 24" fill="none" xmlns="http://www.w3.org/2000/svg">
<circle cx="12" cy="12" r="11.5" fill="white" stroke="#ECEFF2"/>
<path d="M12.7089 5.77774C11.4615 5.78242 10.2665 6.28122 9.38437 7.1654C8.50229 8.04957 8.00467 9.24743 8 10.4978C7.99994 11.0192 8.08373 11.5371 8.24815 12.0317C8.30718 12.1936 8.42574 12.3267 8.57953 12.4038C8.73332 12.4809 8.9107 12.4961 9.07531 12.4463C9.23508 12.3854 9.36563 12.2657 9.4403 12.1116C9.51497 11.9575 9.52813 11.7807 9.47708 11.6172C9.33721 11.2325 9.27495 10.8239 9.29392 10.4149C9.31346 9.75477 9.52409 9.11455 9.90016 8.57225C10.2762 8.02995 10.8015 7.60897 11.412 7.36058C12.0225 7.11219 12.6919 7.04712 13.3387 7.17328C13.9854 7.29944 14.5816 7.6114 15.0546 8.07115C15.5277 8.53091 15.8571 9.11862 16.0028 9.76271C16.1486 10.4068 16.1043 11.0795 15.8754 11.6988C15.6466 12.3181 15.243 12.8574 14.7138 13.2509C14.1846 13.6444 13.5527 13.8751 12.895 13.915C12.895 13.915 12.2363 13.9565 11.9054 13.9979C11.7841 14.0151 11.6638 14.0388 11.545 14.069C11.5365 14.0754 11.5259 14.0785 11.5153 14.0778C11.5046 14.077 11.4946 14.0724 11.4871 14.0649C11.4795 14.0573 11.475 14.0473 11.4742 14.0366C11.4734 14.026 11.4765 14.0154 11.4829 14.0068L11.5863 13.4472L12.2067 10.6311C12.2424 10.4634 12.2101 10.2884 12.117 10.1446C12.024 10.0008 11.8777 9.89988 11.7104 9.86415C11.5431 9.82842 11.3686 9.86075 11.2251 9.95405C11.0816 10.0473 10.9809 10.194 10.9453 10.3616C10.9453 10.3616 9.46821 17.2375 9.46821 17.2996C9.44787 17.3826 9.44464 17.4688 9.45871 17.5531C9.47278 17.6374 9.50386 17.7179 9.55005 17.7896C9.59623 17.8614 9.65655 17.923 9.72731 17.9707C9.79807 18.0183 9.87778 18.0509 9.96156 18.0666C10.0445 18.0865 10.1306 18.0893 10.2147 18.0748C10.2988 18.0604 10.379 18.0289 10.4506 17.9824C10.5221 17.9358 10.5835 17.8752 10.631 17.8042C10.6785 17.7331 10.711 17.6532 10.7267 17.5691C10.7474 17.4862 10.9335 16.5742 10.9335 16.5742C11.002 16.2384 11.1716 15.9319 11.4193 15.6957C11.6671 15.4596 11.981 15.3052 12.319 15.2535C12.4608 15.2327 13.0605 15.1913 13.0605 15.1913C14.2589 15.0803 15.3693 14.5132 16.1634 13.6067C16.9576 12.7003 17.3751 11.5232 17.33 10.3177C17.285 9.11218 16.7809 7.96975 15.9214 7.12532C15.0619 6.28089 13.9123 5.79865 12.7089 5.77774Z" fill="#1E1E1E"/>
<path d="M13.8866 16.648C13.7847 16.6273 13.6798 16.627 13.5778 16.6471C13.4758 16.6672 13.3787 16.7073 13.2922 16.7651C13.2058 16.8229 13.1315 16.8972 13.0738 16.9839C13.0161 17.0705 12.976 17.1678 12.9559 17.27C12.934 17.3722 12.9327 17.4778 12.9523 17.5805C12.9718 17.6832 13.0116 17.7809 13.0695 17.8679C13.1273 17.9548 13.202 18.0293 13.2891 18.0869C13.3761 18.1444 13.4738 18.1839 13.5763 18.2029C13.6782 18.2262 13.7837 18.2283 13.8865 18.2093C13.9892 18.1902 14.087 18.1504 14.1738 18.0922C14.2607 18.0339 14.3347 17.9586 14.3915 17.8707C14.4483 17.7828 14.4866 17.6842 14.5041 17.581C14.5389 17.3759 14.4945 17.1652 14.3797 16.9919C14.265 16.8186 14.0886 16.6956 13.8866 16.648Z" fill="#E6007A"/>
</svg>
